<svg width="106" height="133" viewBox="0 0 106 133" fill="none" xmlns="http://www.w3.org/2000/svg">
<path d="M53.0157 67.7383C51.6555 67.7383 50.549 69.166 50.549 70.9204C50.549 72.6743 51.6556 74.1015 53.0157 74.1015C54.3744 74.1015 55.4799 72.6743 55.4799 70.9204C55.4799 69.166 54.3744 67.7383 53.0157 67.7383ZM53.0157 73.3471C52.0701 73.3471 51.3005 72.2587 51.3005 70.9204C51.3005 69.5816 52.0701 68.4926 53.0157 68.4926C53.9603 68.4926 54.7284 69.5816 54.7284 70.9204C54.7284 72.2587 53.9603 73.3471 53.0157 73.3471V73.3471Z" fill="#3193A0"/>
<path d="M73.8387 79.7134H73.0872V81.8871H73.8387V79.7134Z" fill="#3193A0"/>
<path d="M75.5894 63.9688H74.8379V70.5081H75.5894V63.9688Z" fill="#3193A0"/>
<path d="M72.0853 61.9194H71.3338V68.4588H72.0853V61.9194Z" fill="#3193A0"/>
<path d="M75.5894 41.4028H74.8379V42.4263H75.5894V41.4028Z" fill="#3193A0"/>
<path d="M72.0853 39.3516H71.3338V40.3766H72.0853V39.3516Z" fill="#3193A0"/>
<path d="M75.5894 44.7939H74.8379V45.8169H75.5894V44.7939Z" fill="#3193A0"/>
<path d="M72.0853 42.7432H71.3338V43.7682H72.0853V42.7432Z" fill="#3193A0"/>
<path d="M75.5894 48.1836H74.8379V49.2081H75.5894V48.1836Z" fill="#3193A0"/>
<path d="M72.0853 46.1353H71.3338V47.1577H72.0853V46.1353Z" fill="#3193A0"/>
<path d="M75.5894 51.5752H74.8379V52.6002H75.5894V51.5752Z" fill="#3193A0"/>
<path d="M72.0853 49.5239H71.3338V50.5495H72.0853V49.5239Z" fill="#3193A0"/>
<path d="M75.5894 54.9644H74.8379V55.9899H75.5894V54.9644Z" fill="#3193A0"/>
<path d="M72.0853 52.916H71.3338V53.9411H72.0853V52.916Z" fill="#3193A0"/>
<path d="M75.5894 74.6836H74.8379V76.8651H75.5894V74.6836Z" fill="#3193A0"/>
<path d="M72.0853 72.6338H71.3338V74.8158H72.0853V72.6338Z" fill="#3193A0"/>
<path d="M62.9409 74.4385H62.1894V76.6117H62.9409V74.4385Z" fill="#3193A0"/>
<path d="M64.6925 58.6934H63.941V65.2332H64.6925V58.6934Z" fill="#3193A0"/>
<path d="M61.1879 56.6445H60.4363V63.1839H61.1879V56.6445Z" fill="#3193A0"/>
<path d="M64.6925 36.127H63.941V37.1504H64.6925V36.127Z" fill="#3193A0"/>
<path d="M61.1879 34.0757H60.4363V35.1007H61.1879V34.0757Z" fill="#3193A0"/>
<path d="M64.6925 39.519H63.941V40.5415H64.6925V39.519Z" fill="#3193A0"/>
<path d="M61.1879 37.4668H60.4363V38.4918H61.1879V37.4668Z" fill="#3193A0"/>
<path d="M64.6925 42.9077H63.941V43.9322H64.6925V42.9077Z" fill="#3193A0"/>
<path d="M61.1879 40.8594H60.4363V41.8823H61.1879V40.8594Z" fill="#3193A0"/>
<path d="M64.6925 46.2988H63.941V47.3239H64.6925V46.2988Z" fill="#3193A0"/>
<path d="M61.1879 44.2485H60.4363V45.2741H61.1879V44.2485Z" fill="#3193A0"/>
<path d="M64.6925 49.6895H63.941V50.715H64.6925V49.6895Z" fill="#3193A0"/>
<path d="M61.1879 47.6401H60.4363V48.6652H61.1879V47.6401Z" fill="#3193A0"/>
<path d="M64.6925 69.4087H63.941V71.5907H64.6925V69.4087Z" fill="#3193A0"/>
<path d="M61.1879 67.3579H60.4363V69.5394H61.1879V67.3579Z" fill="#3193A0"/>
<path d="M32.9092 79.7134H32.1577V81.8871H32.9092V79.7134Z" fill="#3193A0"/>
<path d="M31.1582 63.9688H30.4067V70.5081H31.1582V63.9688Z" fill="#3193A0"/>
<path d="M34.6631 61.9194H33.9116V68.4588H34.6631V61.9194Z" fill="#3193A0"/>
<path d="M31.1582 41.4028H30.4067V42.4263H31.1582V41.4028Z" fill="#3193A0"/>
<path d="M34.6631 39.3516H33.9116V40.3766H34.6631V39.3516Z" fill="#3193A0"/>
<path d="M31.1582 44.7939H30.4067V45.8169H31.1582V44.7939Z" fill="#3193A0"/>
<path d="M34.6631 42.7432H33.9116V43.7682H34.6631V42.7432Z" fill="#3193A0"/>
<path d="M31.1582 48.1836H30.4067V49.2081H31.1582V48.1836Z" fill="#3193A0"/>
<path d="M34.6631 46.1353H33.9116V47.1577H34.6631V46.1353Z" fill="#3193A0"/>
<path d="M31.1582 51.5752H30.4067V52.6002H31.1582V51.5752Z" fill="#3193A0"/>
<path d="M34.6631 49.5239H33.9116V50.5495H34.6631V49.5239Z" fill="#3193A0"/>
<path d="M31.1582 54.9644H30.4067V55.9899H31.1582V54.9644Z" fill="#3193A0"/>
<path d="M34.6631 52.916H33.9116V53.9411H34.6631V52.916Z" fill="#3193A0"/>
<path d="M31.1582 74.6836H30.4067V76.8651H31.1582V74.6836Z" fill="#3193A0"/>
<path d="M34.6631 72.6338H33.9116V74.8158H34.6631V72.6338Z" fill="#3193A0"/>
<path d="M43.8071 74.4385H43.0555V76.6117H43.8071V74.4385Z" fill="#3193A0"/>
<path d="M42.0561 58.6934H41.3046V65.2332H42.0561V58.6934Z" fill="#3193A0"/>
<path d="M45.5601 56.6445H44.8085V63.1839H45.5601V56.6445Z" fill="#3193A0"/>
<path d="M42.0561 36.127H41.3046V37.1504H42.0561V36.127Z" fill="#3193A0"/>
<path d="M45.5601 34.0757H44.8085V35.1007H45.5601V34.0757Z" fill="#3193A0"/>
<path d="M42.0561 39.519H41.3046V40.5415H42.0561V39.519Z" fill="#3193A0"/>
<path d="M45.5601 37.4668H44.8085V38.4918H45.5601V37.4668Z" fill="#3193A0"/>
<path d="M42.0561 42.9077H41.3046V43.9322H42.0561V42.9077Z" fill="#3193A0"/>
<path d="M45.5601 40.8594H44.8085V41.8823H45.5601V40.8594Z" fill="#3193A0"/>
<path d="M42.0561 46.2988H41.3046V47.3239H42.0561V46.2988Z" fill="#3193A0"/>
<path d="M45.5601 44.2485H44.8085V45.2741H45.5601V44.2485Z" fill="#3193A0"/>
<path d="M42.0561 49.6895H41.3046V50.715H42.0561V49.6895Z" fill="#3193A0"/>
<path d="M45.5601 47.6401H44.8085V48.6652H45.5601V47.6401Z" fill="#3193A0"/>
<path d="M42.0561 69.4087H41.3046V71.5907H42.0561V69.4087Z" fill="#3193A0"/>
<path d="M45.5601 67.3579H44.8085V69.5394H45.5601V67.3579Z" fill="#3193A0"/>
<path d="M92.6958 66.6377C93.6505 59.484 92.6632 52.2042 89.8382 45.5669C87.0133 38.9297 82.4554 33.1811 76.6457 28.9283L76.6449 28.9293C75.8076 23.0511 75.0595 18.943 74.8944 18.054C75.2586 17.7678 75.5247 17.3747 75.6557 16.9295C75.7867 16.4843 75.776 16.0092 75.6252 15.5703C75.4743 15.1315 75.1908 14.7509 74.8142 14.4815C74.4376 14.2121 73.9866 14.0673 73.5241 14.0675C73.0616 14.0676 72.6107 14.2125 72.2343 14.4821C71.8578 14.7517 71.5745 15.1325 71.4239 15.5714C71.2732 16.0103 71.2628 16.4855 71.394 16.9306C71.5252 17.3758 71.7916 17.7687 72.1559 18.0547C72.0432 18.6607 71.5499 21.3607 70.9269 25.4275C69.2344 24.5749 67.4836 23.8441 65.6879 23.2407C64.8747 17.584 64.1579 13.6451 63.9968 12.7782C64.3609 12.492 64.6271 12.099 64.7581 11.6537C64.889 11.2085 64.8784 10.7334 64.7276 10.2946C64.5767 9.85571 64.2932 9.47505 63.9166 9.20564C63.54 8.93623 63.089 8.7915 62.6265 8.79162C62.164 8.79174 61.7131 8.93671 61.3366 9.20632C60.9601 9.47592 60.6768 9.85673 60.5262 10.2956C60.3756 10.7346 60.3652 11.2097 60.4964 11.6549C60.6277 12.1 60.894 12.4929 61.2583 12.7789C61.1316 13.4603 60.521 16.8073 59.7877 21.7589C55.2934 20.9957 50.7033 20.9959 46.2091 21.7595C45.4757 16.8076 44.8651 13.4603 44.7384 12.7789C45.1027 12.4929 45.3691 12.1 45.5003 11.6548C45.6315 11.2097 45.6211 10.7345 45.4705 10.2956C45.3199 9.85662 45.0366 9.4758 44.6601 9.20619C44.2836 8.93658 43.8326 8.79161 43.3701 8.7915C42.9076 8.79139 42.4566 8.93615 42.08 9.20558C41.7034 9.47501 41.4199 9.8557 41.2691 10.2946C41.1182 10.7334 41.1076 11.2086 41.2386 11.6538C41.3697 12.099 41.6358 12.4921 42 12.7783C41.839 13.6452 41.1223 17.5841 40.3093 23.2406C38.5134 23.8443 36.7625 24.5756 35.0701 25.429C34.447 21.3613 33.9535 18.6607 33.8409 18.0547C34.2052 17.7687 34.4715 17.3757 34.6027 16.9306C34.7339 16.4854 34.7235 16.0103 34.5728 15.5714C34.4222 15.1325 34.1389 14.7517 33.7624 14.4821C33.3859 14.2125 32.935 14.0675 32.4725 14.0674C32.0101 14.0673 31.5591 14.2121 31.1824 14.4815C30.8058 14.7509 30.5223 15.1315 30.3715 15.5704C30.2207 16.0092 30.21 16.4844 30.341 16.9296C30.472 17.3748 30.7381 17.7679 31.1023 18.054C30.9369 18.9451 30.1859 23.0713 29.3462 28.9713L29.3282 28.9469C23.6459 33.1342 19.1606 38.7479 16.3225 45.2249C15.3756 45.0091 14.3841 45.1133 13.5022 45.5212C12.6203 45.9291 11.8972 46.6179 11.4454 47.4807C10.9739 47.3608 10.4825 47.3429 10.0036 47.4282C9.52475 47.5135 9.06943 47.7 8.66783 47.9753C8.26624 48.2507 7.92756 48.6086 7.67426 49.0253C7.42095 49.4421 7.25881 49.9081 7.19859 50.3925C7.13836 50.8769 7.18143 51.3687 7.32494 51.8351C7.46845 52.3015 7.70912 52.732 8.03098 53.098C8.35284 53.464 8.74855 53.7571 9.19185 53.9579C9.63514 54.1587 10.1159 54.2625 10.6022 54.2626H13.5838C13.165 56.6106 12.9532 58.9912 12.951 61.3765C12.9504 67.1012 14.1707 72.7597 16.5299 77.9717C18.889 83.1836 22.3324 87.8283 26.6285 91.5934V91.6284H26.6688C31.8446 96.1781 38.1016 99.3114 44.8356 100.726C51.5697 102.14 58.5533 101.788 65.1122 99.7032C71.6711 97.6183 77.5836 93.8712 82.279 88.8236C86.9744 83.776 90.2939 77.5986 91.9171 70.8877H92.6616C93.2207 70.8884 93.7573 70.6672 94.1545 70.2723C94.5516 69.8774 94.777 69.3408 94.7816 68.7797C94.7861 68.2186 94.5693 67.6785 94.1785 67.2772C93.7878 66.8759 93.2548 66.646 92.6958 66.6377V66.6377ZM76.6645 34.7735H73.9005V18.5037C74.0016 18.4847 74.1012 18.4586 74.1987 18.4256C74.501 20.0752 75.6301 26.437 76.6645 34.7735ZM75.049 92.5365C74.9575 92.1602 74.7397 91.8271 74.4322 91.593C74.1247 91.3589 73.7464 91.2382 73.3607 91.2512H69.6812L70.7687 96.6032C70.1816 96.9003 69.5863 97.1827 68.9831 97.4506L67.2868 88.7652C67.1959 88.3886 66.9785 88.0548 66.6712 87.8202C66.3639 87.5855 65.9854 87.4642 65.5995 87.4768H61.9191L64.2671 99.1874C63.5771 99.3925 62.8785 99.5757 62.174 99.7433C61.9735 98.6503 61.494 96.1376 60.5687 91.774V91.5343H60.518L60.5087 91.4902C59.4087 86.317 55.5559 80.1809 53.9891 77.836C57.6565 79.2611 70.055 85.325 78.6172 89.6192V91.3564C77.5634 92.2603 76.4625 93.1072 75.319 93.8937L75.049 92.5365ZM74.6443 94.3542C73.6159 95.0326 72.5549 95.6608 71.4613 96.2387L70.6015 92.0056H73.3606C73.5726 91.9927 73.7826 92.053 73.9557 92.1766C74.1287 92.3001 74.2545 92.4794 74.3119 92.6846L74.6443 94.3542ZM62.8372 88.2312H65.5996C65.8117 88.2186 66.0217 88.2793 66.1946 88.4032C66.3675 88.5272 66.4929 88.7068 66.5499 88.9123L67.0469 91.4569H63.484L62.8372 88.2312ZM67.1942 92.2113L68.2762 97.7505C67.2027 98.2019 66.107 98.6062 64.989 98.9634L63.6352 92.2113H67.1942ZM57.3923 97.7568C56.0381 96.9491 54.478 96.557 52.9044 96.6289C51.3288 96.5565 49.7666 96.9486 48.4103 97.7568L48.0273 98.0404L48.2581 98.2389V100.526C47.0285 100.376 45.817 100.172 44.6236 99.9118C44.8013 98.8785 45.2391 96.4732 46.1214 92.2887H59.9092C60.7946 96.4761 61.2524 98.883 61.4417 99.9174C60.1645 100.195 58.8639 100.405 57.5466 100.556V98.1267L57.6154 97.9189L57.3923 97.7568ZM38.8575 92.2113H42.4268L41.12 98.9762C39.994 98.6169 38.8903 98.2095 37.809 97.7542L38.8575 92.2113ZM42.5725 91.4569H39.0003L39.4815 88.9128C39.5398 88.7086 39.6651 88.5301 39.8371 88.4064C40.0091 88.2827 40.2178 88.2209 40.4291 88.2312H43.1956L42.5725 91.4569ZM44.1066 87.4768H40.4292C40.0429 87.4643 39.6642 87.5861 39.3571 87.8216C39.05 88.0572 38.8334 88.392 38.744 88.7694L38.2356 91.4569H38.2295V91.4891L37.1041 97.4389C36.4981 97.1687 35.9004 96.8836 35.3111 96.5839L36.3455 91.2512H32.6687C32.2821 91.2382 31.903 91.3597 31.5954 91.595C31.2879 91.8304 31.0708 92.1652 30.9808 92.5427L30.7396 93.8598C29.5739 93.0507 28.4525 92.1794 27.3801 91.2496V89.6212C35.9755 85.3143 48.4336 79.2248 52.0498 77.8239C50.4871 80.1611 46.6225 86.3091 45.5217 91.4907L45.5125 91.5343H45.4616V91.7752C44.5392 96.1306 44.08 98.6437 43.8904 99.7415C43.2011 99.5765 42.5188 99.3941 41.8435 99.1942L44.1066 87.4768ZM34.6146 96.2253C33.5175 95.6397 32.4525 95.0043 31.4195 94.3191L31.7189 92.6846C31.7759 92.4794 31.9012 92.3 32.0741 92.1764C32.247 92.0528 32.4568 91.9925 32.6687 92.0056H35.4336L34.6146 96.2253ZM29.1678 36.1128C29.1915 35.9145 29.2158 35.7242 29.2396 35.5278H35.6993C36.4469 41.6678 37.1353 48.831 37.4259 56.0209C33.0439 58.1601 29.0379 60.1579 27.3975 60.9785C27.547 52.6642 28.1379 44.3639 29.1678 36.1128V36.1128ZM40.0659 30.8375C40.0896 30.6392 40.1138 30.4488 40.1377 30.2525H46.5969C47.3476 36.4187 48.0389 43.6168 48.3273 50.837C45.5176 52.1108 41.835 53.8737 38.296 55.5966C38.4495 47.318 39.0402 39.0533 40.0659 30.8375V30.8375ZM59.3998 30.2525H65.8595C65.8834 30.4489 65.9076 30.6392 65.9313 30.8375C66.9567 39.0515 67.5475 47.3142 67.7011 55.591C64.1619 53.867 60.4794 52.1038 57.6697 50.831C57.9582 43.6128 58.6493 36.417 59.3998 30.2525V30.2525ZM78.6172 62.8198V88.7762C76.9731 87.9528 72.9065 85.9229 68.4711 83.7572V59.0514C68.4887 58.3142 68.5108 57.5761 68.5375 56.8373C72.0028 58.531 75.5487 60.2896 78.6078 61.8238C78.6099 62.1538 78.6172 62.4939 78.6172 62.8198ZM67.7091 56.4326C67.7117 56.8016 67.7196 57.1807 67.7196 57.5445V59.0449C67.689 60.3297 67.6731 61.6088 67.6719 62.8822V83.3675C64.0822 81.6192 60.3447 79.83 57.5259 78.5563V57.6064C57.5259 55.6316 57.5654 53.6335 57.6369 51.6338C60.3462 52.8746 63.9498 54.5998 67.7091 56.4326ZM47.2943 88.2852H58.7358C59.1531 89.3413 59.4905 90.4274 59.7452 91.5343H46.285C46.5396 90.4274 46.877 89.3412 47.2943 88.2852V88.2852ZM47.5978 87.5308C49.0953 84.1053 50.9092 80.8281 53.0158 77.7423C55.1218 80.8282 56.9353 84.1054 58.4324 87.5308H47.5978ZM53.0002 76.7713H52.9986C51.6941 77.1265 50.4289 77.6136 49.2224 78.2253V66.1262C50.4287 65.4959 51.6943 64.9874 53.0007 64.6081C54.3069 64.9805 55.5714 65.4869 56.7743 66.1193V78.2197C55.5691 77.6084 54.3044 77.123 53.0002 76.7713V76.7713ZM49.2223 62.32C50.4278 61.6884 51.6934 61.18 53.0002 60.8025C54.3065 61.175 55.5712 61.6814 56.7743 62.3136V65.2942C53.9818 64.0461 53.2782 63.8537 53.0017 63.8537C52.7223 63.8234 52.0365 64.0379 49.2224 65.2998L49.2223 62.32ZM56.7743 57.6064V61.4878C53.9719 60.2323 53.2625 60.011 52.9986 60.0482C52.831 60.0487 52.4441 60.0535 49.2223 61.4937V57.6064C49.2223 55.5228 49.1772 53.4136 49.0984 51.304C50.3511 50.6681 51.6566 50.1431 53.0002 49.7349C54.3431 50.1392 55.6477 50.6622 56.8986 51.2977C56.8196 53.4095 56.7743 55.5208 56.7743 57.6064L56.7743 57.6064ZM48.4708 57.6064L48.7502 65.5114L48.6918 65.5375L48.7562 65.6812L49.2 78.2353C46.3179 79.5187 42.235 81.4698 38.3247 83.3734V62.8822C38.3247 61.62 38.309 60.3501 38.2776 59.0726V57.5445C38.2776 57.1827 38.2855 56.8055 38.288 56.4386C42.0472 54.6066 45.6505 52.8821 48.36 51.6404C48.4314 53.6379 48.4708 55.6337 48.4708 57.6064L48.4708 57.6064ZM27.38 62.8199C27.38 62.4946 27.3873 62.1551 27.3894 61.8257C30.4485 60.2929 33.9942 58.5357 37.4594 56.843C37.4863 57.5888 37.5086 58.334 37.5261 59.0786V83.7626C33.0888 85.9282 29.0212 87.9569 27.38 88.7779V62.8199ZM68.571 56.0153C68.8617 48.8276 69.55 41.6664 70.2974 35.5278H76.7571C76.7809 35.7242 76.8051 35.9145 76.8289 36.1128C77.8592 44.3633 78.4503 52.6631 78.5997 60.9768C76.9565 60.1538 72.9514 58.1549 68.571 56.0153L68.571 56.0153ZM73.5247 14.8354C73.8155 14.8354 74.0998 14.922 74.3416 15.0842C74.5834 15.2464 74.7719 15.4769 74.8832 15.7466C74.9945 16.0163 75.0236 16.3131 74.9668 16.5994C74.9101 16.8857 74.7701 17.1487 74.5644 17.3551C74.3588 17.5615 74.0968 17.7021 73.8115 17.7591C73.5263 17.816 73.2306 17.7868 72.9619 17.6751C72.6933 17.5634 72.4636 17.3742 72.302 17.1315C72.1404 16.8887 72.0542 16.6034 72.0542 16.3114C72.0546 15.9201 72.2096 15.5448 72.4853 15.2681C72.761 14.9914 73.1348 14.8358 73.5247 14.8354L73.5247 14.8354ZM73.1489 18.5037V34.7735H70.3902C71.4388 26.3296 72.5686 19.9709 72.8516 18.4259C72.9488 18.4588 73.0481 18.4848 73.149 18.5037L73.1489 18.5037ZM70.8085 26.2101C69.9455 31.9364 68.8794 40.052 68.2384 48.7216C67.963 43.157 67.4436 37.1477 66.6777 30.7471C66.3921 28.3599 66.0955 26.1247 65.8072 24.0817C67.5215 24.6739 69.1926 25.385 70.8085 26.2101V26.2101ZM65.7669 29.4982H63.0029V13.2278C63.104 13.2089 63.2036 13.1828 63.301 13.1498C63.6033 14.7985 64.7324 21.1595 65.7669 29.4982H65.7669ZM62.6271 9.5596C62.9179 9.5596 63.2022 9.64617 63.444 9.80835C63.6858 9.97054 63.8743 10.2011 63.9856 10.4708C64.0969 10.7405 64.126 11.0372 64.0693 11.3235C64.0125 11.6099 63.8725 11.8729 63.6668 12.0793C63.4612 12.2857 63.1992 12.4263 62.9139 12.4832C62.6287 12.5402 62.3331 12.5109 62.0644 12.3992C61.7957 12.2875 61.566 12.0983 61.4045 11.8556C61.2429 11.6129 61.1566 11.3275 61.1566 11.0356C61.157 10.6442 61.312 10.269 61.5877 9.99231C61.8634 9.71558 62.2372 9.55996 62.6271 9.5596V9.5596ZM62.2513 13.2278V29.4982H59.4925C60.5412 21.0534 61.6712 14.6943 61.9541 13.15C62.0512 13.1829 62.1506 13.2089 62.2514 13.2278H62.2513ZM59.6781 22.5047C58.2973 31.7842 57.3806 41.1274 56.9312 50.499C55.6755 49.8606 54.3583 49.3519 53.0002 48.9806H52.9986C51.6402 49.3555 50.3227 49.8661 49.0657 50.5048C48.6165 41.1314 47.6996 31.7865 46.3187 22.5053C50.7403 21.7528 55.2565 21.7526 59.6781 22.5047H59.6781ZM46.5042 29.4982H43.7453V13.2278C43.8461 13.209 43.9454 13.183 44.0426 13.15C44.3255 14.6943 45.4556 21.0535 46.5042 29.4982ZM43.3696 9.5596C43.6604 9.5596 43.9447 9.64617 44.1865 9.80835C44.4283 9.97054 44.6168 10.2011 44.7281 10.4708C44.8394 10.7405 44.8685 11.0372 44.8118 11.3235C44.755 11.6099 44.615 11.8729 44.4093 12.0793C44.2037 12.2857 43.9417 12.4263 43.6565 12.4832C43.3712 12.5402 43.0756 12.5109 42.8069 12.3992C42.5382 12.2875 42.3085 12.0983 42.147 11.8556C41.9854 11.6129 41.8991 11.3275 41.8991 11.0356C41.8995 10.6442 42.0545 10.269 42.3302 9.99231C42.6059 9.71558 42.9797 9.55996 43.3696 9.5596ZM42.9938 13.2278V29.4982H40.2303C41.2648 21.1606 42.3936 14.7987 42.6958 13.1498C42.7932 13.1828 42.8928 13.2089 42.9938 13.2278ZM40.1899 24.0817C39.9017 26.1247 39.6051 28.3598 39.3195 30.7471C38.5534 37.1493 38.034 43.1601 37.7587 48.7259C37.1178 40.0554 36.0515 31.9387 35.1884 26.2114C36.8044 25.3861 38.4756 24.6745 40.1899 24.0817V24.0817ZM35.6066 34.7735H32.8477V18.5037C32.9486 18.4848 33.0479 18.4588 33.1451 18.4259C33.4281 19.9707 34.5581 26.3293 35.6066 34.7735ZM32.472 14.8354C32.7628 14.8354 33.0471 14.922 33.2889 15.0842C33.5307 15.2464 33.7192 15.4769 33.8305 15.7466C33.9418 16.0163 33.9709 16.3131 33.9142 16.5994C33.8574 16.8857 33.7174 17.1487 33.5117 17.3551C33.3061 17.5615 33.0441 17.7021 32.7589 17.7591C32.4736 17.816 32.178 17.7868 31.9093 17.6751C31.6406 17.5634 31.4109 17.3742 31.2494 17.1314C31.0878 16.8887 31.0015 16.6034 31.0015 16.3114C31.0019 15.9201 31.1569 15.5449 31.4326 15.2681C31.7083 14.9914 32.0821 14.8358 32.472 14.8354V14.8354ZM32.0962 18.5037V34.7735H29.3323C30.367 26.4375 31.4957 20.076 31.798 18.4256C31.8955 18.4586 31.9951 18.4847 32.0962 18.5037V18.5037ZM7.92378 50.8197C7.92418 50.3881 8.028 49.9628 8.22649 49.5799C8.42498 49.197 8.71231 48.8676 9.06424 48.6195C9.41617 48.3714 9.82238 48.212 10.2486 48.1546C10.6748 48.0971 11.1085 48.1435 11.5132 48.2896L11.8424 48.4096L11.9847 48.0891C12.3006 47.3743 12.832 46.7771 13.5041 46.3816C14.1761 45.9862 14.9549 45.8125 15.7305 45.8849C16.5062 45.9574 17.2396 46.2725 17.8274 46.7856C18.4152 47.2988 18.8277 47.9842 19.0067 48.7452L19.1071 49.1728L19.5134 49.0081C19.7878 48.8965 20.0811 48.8391 20.3772 48.8393C20.6826 48.8393 20.9851 48.8997 21.2672 49.017C21.5494 49.1343 21.8058 49.3063 22.0218 49.523C22.2377 49.7398 22.409 49.9972 22.5259 50.2804C22.6428 50.5636 22.703 50.8672 22.703 51.1738C22.703 51.4804 22.6428 51.7839 22.5259 52.0672C22.409 52.3504 22.2377 52.6078 22.0218 52.8245C21.8058 53.0413 21.5494 53.2133 21.2672 53.3306C20.9851 53.4479 20.6826 53.5083 20.3772 53.5083H10.6023C9.89218 53.5074 9.2114 53.2239 8.70927 52.7199C8.20714 52.2159 7.92466 51.5325 7.92378 50.8197V50.8197ZM13.7025 61.3766C13.7038 58.9908 13.9188 56.6099 14.3449 54.2627H20.3772C20.8135 54.2631 21.2449 54.1705 21.6428 53.9908C22.0407 53.8111 22.3959 53.5486 22.685 53.2206C22.9741 52.8926 23.1904 52.5066 23.3196 52.0883C23.4488 51.67 23.4878 51.2289 23.4342 50.7943C23.3806 50.3596 23.2355 49.9414 23.0086 49.5674C22.7817 49.1933 22.4782 48.872 22.1181 48.6247C21.758 48.3773 21.3497 48.2097 20.9202 48.1329C20.4906 48.056 20.0497 48.0718 19.6267 48.179C19.4207 47.5626 19.0837 46.9984 18.6389 46.5257C18.1942 46.0529 17.6524 45.6829 17.0511 45.4412C19.7422 39.3518 23.9213 34.0429 29.201 30.0065C28.9415 31.8724 28.6771 33.8859 28.4214 36.0224C27.3007 44.9119 26.7021 53.8598 26.6285 62.8198V90.5959C22.5572 86.9045 19.303 82.3964 17.0764 77.3632C14.8498 72.33 13.7004 66.8837 13.7025 61.3766V61.3766ZM49.0096 100.621V98.2607C50.2106 97.6354 51.5524 97.3331 52.9044 97.3833C54.2552 97.333 55.5958 97.6358 56.795 98.2618V100.637C55.5442 100.756 54.2794 100.823 53.0002 100.823C51.6674 100.823 50.3356 100.756 49.0096 100.621V100.621ZM79.3687 90.6834V62.8198C79.2954 53.8598 78.6966 44.9118 77.5753 36.0224C77.3195 33.884 77.0549 31.8689 76.7952 30.0017C82.2898 34.1721 86.588 39.7269 89.254 46.1027C91.9199 52.4785 92.8588 59.4485 91.9753 66.306C91.6745 65.9474 91.286 65.6735 90.8478 65.5112C90.4096 65.3489 89.9369 65.3039 89.4762 65.3806C89.0154 65.4573 88.5825 65.653 88.2199 65.9485C87.8573 66.244 87.5776 66.6291 87.4082 67.066C87.1464 67.0208 86.8781 67.0306 86.6204 67.095C86.3626 67.1593 86.121 67.2767 85.9108 67.4397C85.7006 67.6027 85.5264 67.8077 85.3993 68.0418C85.2722 68.2759 85.1949 68.534 85.1724 68.7997C85.1499 69.0653 85.1826 69.3328 85.2684 69.5851C85.3543 69.8374 85.4915 70.069 85.6712 70.2653C85.8509 70.4617 86.0694 70.6183 86.3126 70.7255C86.5558 70.8326 86.8186 70.8878 87.0842 70.8877H91.1406C89.2764 78.5191 85.176 85.4144 79.3687 90.6834V90.6834ZM92.6617 70.1333H87.0842C86.9123 70.1334 86.7424 70.0954 86.5867 70.022C86.4311 69.9485 86.2936 69.8414 86.184 69.7083C86.0745 69.5752 85.9956 69.4194 85.9531 69.2522C85.9106 69.0849 85.9054 68.9102 85.9381 68.7407C85.9707 68.5712 86.0403 68.4111 86.1418 68.2717C86.2433 68.1324 86.3743 68.0173 86.5254 67.9348C86.6764 67.8522 86.8438 67.8042 87.0155 67.7942C87.1872 67.7842 87.3589 67.8125 87.5185 67.8769L87.9237 68.039L88.0236 67.613C88.1186 67.2121 88.3364 66.8512 88.6464 66.581C88.9564 66.3109 89.3429 66.1451 89.7517 66.107C90.1605 66.0689 90.5708 66.1605 90.9251 66.3687C91.2793 66.577 91.5596 66.8915 91.7264 67.268L91.8677 67.5881L92.1964 67.4696C92.3457 67.4161 92.5031 67.3887 92.6617 67.3886C92.8416 67.3881 93.0197 67.4232 93.1861 67.4919C93.3524 67.5607 93.5035 67.6617 93.6309 67.7892C93.7583 67.9166 93.8593 68.0681 93.9282 68.2349C93.9972 68.4016 94.0327 68.5804 94.0327 68.7609C94.0327 68.9415 93.9972 69.1202 93.9282 69.287C93.8593 69.4537 93.7583 69.6052 93.6309 69.7327C93.5035 69.8601 93.3524 69.9611 93.1861 70.0299C93.0197 70.0986 92.8416 70.1338 92.6617 70.1333L92.6617 70.1333Z" fill="#3193A0"/>
</svg>
