<svg width="38" height="39" fill="none" xmlns="http://www.w3.org/2000/svg"><path d="M37 21.5C37 31.2 29 39 19 39 9 38.5 1 31.2 1 21.5S9 4 19 4s18 7.8 18 17.5z" fill="none"/><path d="M0 19.3c0 8.5 5.4 15.9 13 18.6 1 .1 1.3-.5 1.3-1v-3.3C9.1 34.6 8 31 8 31c-.7-2.2-2-2.8-2-2.8C4 26.9 6 27 6 27c2 .1 2.9 2 2.9 2 1.8 3 4.5 2 5.6 1.6.1-1.3.6-2 1.2-2.5-4.3-.5-8.7-2.3-8.7-9.7 0-2.1.8-3.9 1.9-5.3-.2-.5-.8-2.5.2-5.2 0 0 1.6-.5 5.2 2 1.6-.4 3.2-.6 4.8-.6 1.6 0 3.2.2 4.7.6 3.7-2.5 5.3-2 5.3-2 1.1 2.7.3 4.6.2 5.2 1.2 1.4 1.9 3.2 1.9 5.3 0 7.4-4.5 9.2-8.8 9.7.7.6 1.3 1.7 1.3 3.6v5.4c0 .5.3 1.1 1.3 1 7.6-2.6 13-9.9 13-18.6C38 8.8 29.4 0 19 0 8.5-.3 0 8.4 0 19.3z" fill="#324B4F"/></svg>