<svg width="38" height="39" viewBox="0 0 38 39" fill="none" xmlns="http://www.w3.org/2000/svg">
<ellipse cx="19" cy="19.5" rx="19" ry="19.5" fill="#1E283F"/>
<path d="M0 19.2584C0 27.8493 5.40585 35.1675 13.0377 37.872C13.9916 38.0311 14.3096 37.3948 14.3096 36.9175C14.3096 36.4402 14.3096 35.1675 14.3096 33.5766C9.06276 34.6902 7.94979 31.0311 7.94979 31.0311C7.15481 28.8039 5.88284 28.1675 5.88284 28.1675C4.13389 26.8948 6.04185 27.0539 6.04185 27.0539C7.9498 27.213 8.90378 29.122 8.90378 29.122C10.6527 32.1448 13.3557 31.1902 14.4686 30.7129C14.6276 29.4402 15.1046 28.6448 15.7406 28.1675C11.4477 27.6902 6.99581 25.9402 6.99581 18.4629C6.99581 16.3947 7.79081 14.6448 8.90378 13.2129C8.74478 12.7357 8.10878 10.6675 9.06276 7.96296C9.06276 7.96296 10.6527 7.48567 14.3096 10.0311C15.8996 9.55385 17.4895 9.39477 19.0795 9.39477C20.6695 9.39477 22.2594 9.55385 23.8494 10.0311C27.5063 7.48567 29.0962 7.96296 29.0962 7.96296C30.2092 10.6675 29.4142 12.5766 29.2552 13.2129C30.5272 14.6448 31.1632 16.3947 31.1632 18.4629C31.1632 25.9402 26.7113 27.6902 22.4184 28.1675C23.0544 28.8038 23.6904 29.9175 23.6904 31.8266C23.6904 34.3721 23.6904 36.5993 23.6904 37.2357C23.6904 37.713 24.0084 38.3493 24.9623 38.1902C32.5941 35.6448 38 28.3266 38 19.5766C38 8.75839 29.4142 0.00841143 18.9205 0.00841143C8.58577 -0.30977 0 8.44019 0 19.2584Z" fill="#FCFCFC"/>
</svg>
