<svg width="72" height="32" viewBox="0 0 72 32" fill="none" xmlns="http://www.w3.org/2000/svg">
<path d="M0.102 17.31C2.762 17.348 3.066 18.906 3.066 20.008C3.066 20.996 2.952 21.984 2.838 23.01C2.686 24.036 2.572 25.1 2.572 26.05C2.572 29.888 4.928 31.256 8.234 31.256H9.336V28.558H8.652C6.752 28.558 5.992 27.456 5.992 25.556C5.992 24.796 6.106 23.998 6.258 23.162C6.334 22.326 6.486 21.414 6.486 20.388C6.524 17.728 5.384 16.55 3.446 16.094V16.018C5.384 15.562 6.524 14.422 6.486 11.762C6.486 10.774 6.334 9.862 6.258 9.026C6.106 8.19 5.992 7.392 5.992 6.632C5.992 4.77 6.676 3.668 8.652 3.668H9.336V0.931998H8.234C4.852 0.931998 2.572 2.452 2.572 6.024C2.572 7.012 2.686 8.038 2.838 9.102C2.952 10.128 3.066 11.154 3.066 12.142C3.066 13.358 2.762 14.802 0.102 14.84V17.31ZM35.2437 27H39.8037L38.3217 1.388H32.2417L28.7077 11.648C27.7197 14.65 26.8457 17.804 26.1617 20.578H26.0477C25.4017 17.728 24.6037 14.688 23.6917 11.686L20.3477 1.388H14.1917L12.4817 27H16.8517L17.4217 16.702C17.6117 13.206 17.7637 9.14 17.8777 5.796H17.9537C18.6377 8.988 19.5497 12.484 20.5377 15.752L23.9577 26.696H27.5677L31.2917 15.6C32.4317 12.37 33.4957 8.912 34.3317 5.796H34.4457C34.4077 9.254 34.5977 13.244 34.7497 16.55L35.2437 27ZM43.4193 25.784C44.8253 26.62 47.6373 27.38 50.3353 27.38C56.9473 27.38 60.0633 23.808 60.0633 19.704C60.0633 16.018 57.8973 13.776 53.4513 12.104C50.0313 10.774 48.5493 9.862 48.5493 7.886C48.5493 6.404 49.8413 4.808 52.8053 4.808C55.1993 4.808 56.9853 5.53 57.8973 6.024L59.0373 2.262C57.7073 1.578 55.6553 0.969998 52.8813 0.969998C47.3333 0.969998 43.8373 4.162 43.8373 8.342C43.8373 12.028 46.5353 14.27 50.7533 15.79C54.0213 16.968 55.3133 18.108 55.3133 20.046C55.3133 22.136 53.6413 23.542 50.6393 23.542C48.2453 23.542 45.9653 22.782 44.4453 21.908L43.4193 25.784ZM71.8644 14.84C69.2424 14.802 68.9004 13.358 68.9004 12.142C68.9004 11.154 69.0524 10.128 69.1664 9.102C69.2804 8.038 69.4324 7.012 69.4324 6.024C69.4324 2.452 67.1524 0.931998 63.7704 0.931998H62.6684V3.668H63.3524C65.2904 3.706 65.9744 4.77 65.9744 6.632C65.9744 7.392 65.8604 8.19 65.7464 9.026C65.6324 9.862 65.5184 10.774 65.5184 11.762C65.4804 14.422 66.6204 15.562 68.5204 16.018V16.094C66.6204 16.55 65.4804 17.728 65.5184 20.388C65.5184 21.414 65.6324 22.326 65.7464 23.162C65.8604 23.998 65.9744 24.796 65.9744 25.556C65.9744 27.456 65.2524 28.52 63.3524 28.558H62.6684V31.256H63.7704C67.0764 31.256 69.4324 29.888 69.4324 26.05C69.4324 25.1 69.2804 24.036 69.1664 23.01C69.0524 21.984 68.9004 20.996 68.9004 20.008C68.9004 18.906 69.2424 17.348 71.8644 17.31V14.84Z" fill="#D26F28"/>
</svg>
