<svg width="48" height="43" fill="none" xmlns="http://www.w3.org/2000/svg"><path fill-rule="evenodd" clip-rule="evenodd" d="M33.6 1c-.8 0-1.6 0-2.5.4-1.6.5-3.3 1.5-5 3-.8.5-1.5 1.2-2.2 1.8l-2-1.8a16.4 16.4 0 0 0-5.1-3c-1.6-.5-3.3-.5-4.6.2-1.3.8-2.1 2.2-2.5 3.9-.3 1.7-.3 3.7 0 6l.6 2.3-2.2.8a16 16 0 0 0-5 3 5.6 5.6 0 0 0-2.1 4c0 1.5.8 3 2 4a16 16 0 0 0 5 3l2.4.8-.7 3.2c-.3 2.2-.4 4.2 0 6 .4 1.6 1.2 3 2.5 3.8 1.3.8 3 .7 4.6.2 1.6-.5 3.4-1.6 5.1-3l2-1.8 2.2 1.8c1.7 1.5 3.4 2.5 5 3 1.7.5 3.3.6 4.6-.2 1.4-.8 2.2-2.2 2.5-3.9.4-1.6.4-3.6 0-5.9l-.7-3.2 2.4-.8a16 16 0 0 0 5-3c1.3-1 2.1-2.5 2.1-4s-.8-3-2-4a16 16 0 0 0-5-3 30 30 0 0 0-2.3-.8l.5-2.4c.4-2.3.4-4.3 0-6-.3-1.6-1.1-3-2.5-3.8-.6-.4-1.4-.6-2.1-.6zm-.1 2c.5 0 .9.1 1.2.4.7.4 1.3 1.2 1.5 2.5.3 1.3.3 3.1 0 5.2l-.5 2.2c-2-.5-4.3-.9-6.7-1a48.2 48.2 0 0 0-3.6-4.6l2-1.8c1.5-1.3 3-2.2 4.4-2.6a5 5 0 0 1 1.7-.3zm-19 0l1.7.3c1.3.4 2.8 1.3 4.4 2.7l2 1.7a48.3 48.3 0 0 0-3.8 4.5c-2.3.2-4.6.6-6.6 1.1l-.5-2.2c-.3-2-.3-3.9 0-5.2.3-1.3.8-2.1 1.5-2.5.4-.2.8-.4 1.3-.4zM24 9.1a45 45 0 0 1 2.4 3 57.9 57.9 0 0 0-4.9 0L24 9zm0 5h4a56.9 56.9 0 0 1 4.5 7.9 57.2 57.2 0 0 1-4 7 54.3 54.3 0 0 1-9.1 0 57.1 57.1 0 0 1-4-7 57 57 0 0 1 4.6-7.8l4-.2zm6.5.3l4.7.8a45 45 0 0 1-1.6 4.4 60.5 60.5 0 0 0-3-5.2zm-13.2 0a60.1 60.1 0 0 0-3 5.2 45 45 0 0 1-1.6-4.3c1.5-.4 3-.7 4.6-.9zm19.9 1.4l2 .7c1.9.7 3.4 1.6 4.4 2.5 1 .9 1.4 1.8 1.4 2.6s-.4 1.7-1.4 2.6c-1 .9-2.5 1.8-4.4 2.5l-2.3.8c-.5-1.8-1.3-3.6-2.1-5.5 1-2.1 1.8-4.2 2.4-6.2zm-26.4 0c.6 2 1.4 4 2.4 6.2-.9 1.8-1.6 3.7-2.2 5.5l-2.2-.8C7 26 5.4 25.1 4.4 24.2c-1-1-1.4-1.8-1.4-2.6s.4-1.7 1.4-2.6c1-1 2.5-1.8 4.4-2.5l2-.7zM24 17a5 5 0 0 0-5 5 5 5 0 0 0 5 5 5 5 0 0 0 5-5 5 5 0 0 0-5-5zm-9.7 7.4a60.4 60.4 0 0 0 2.5 4.3L13 28l1.3-3.6zm19.3 0L35 28l-3.8.7a60.8 60.8 0 0 0 2.4-4.3zm-21.2 5.5c1.8.5 3.8.8 5.9 1 1.3 2 2.8 3.8 4.2 5.4L20.6 38a14.7 14.7 0 0 1-4.4 2.7c-1.3.4-2.3.3-3 0-.7-.5-1.2-1.3-1.5-2.6-.3-1.3-.3-3.1 0-5.2l.7-3zm23.2 0l.6 3c.4 2.1.4 3.9 0 5.2-.2 1.3-.7 2.1-1.5 2.6-.7.4-1.6.4-3 0-1.2-.4-2.8-1.3-4.4-2.6l-2-1.8c1.5-1.6 3-3.4 4.4-5.4 2-.2 4-.5 5.9-1zm-14.7 1.2a57.3 57.3 0 0 0 6.1 0 46 46 0 0 1-3 3.7c-1-1-2.1-2.3-3.1-3.7z" fill="#60DAFC"/></svg>