<svg width="110" height="14" fill="none" xmlns="http://www.w3.org/2000/svg">
    <path d="M109.3 6.6c-.4-.1-.8-.2-1.1-.5l-.5-.2c-1-.3-2.2-.5-3.3-.6l-3-.3c-1-.1-2-.2-2.8-.8a3.2 3.2 0 0 0-1.3-.4c-2.9-.5-5.7-1.2-8.6-1.6-.8-.1-1.6-.4-2.5-.4l-.3-.2h-.6c-1.1 0-2.3-.3-3.4-.4-1.6-.1-3.1-.4-4.7-.4h-.5C76 .6 75.2.6 74.4.6h-1L70.7.2c-1.7 0-3.3.1-5-.2H53.8c-.7.2-1.4.2-2 .2h-4.4c-1.1.3-2.3.2-3.5.3h-1c-.6.2-1.1.2-1.7.2L39 1l-2.2.2H36c-.6.2-1.2.2-1.7.2-1.7 0-3.3.3-5 .3h-.2c-.6.2-1.2.2-1.8.2l-2.1.1-1.8.2h-.8l-1.4.2-2 .1c-1.2.1-2.3.2-3.5.1-.8 0-1.6 0-2.3.2-1 .3-2 .4-3 .4H7a3 3 0 0 1-1.8 0L4.7 3H3.5l-1.1.6c-.4.2-.8.1-1.2.5L.6 5.3C.5 6 .6 6.5 1 7c.2.1.3.2.5.1.3 0 .6-.3.7-.6.2-.4.5-.6.8-.7h.3l.5.3c0 .3.2.6 0 .8-.2.3-.5.5-1 .4-.3 0-.7 0-1 .3-.2 0-.3.2-.3.5 0 .2 0 .5.3.6l1.5 1 .2.4c.1.3.3.5.6.6H5.8c.8.6 1.3 1.3 1.9 2l1.3.2a2.4 2.4 0 0 1 1.8 0 3.3 3.3 0 0 0 2 .2l1.9-.1 2.8-.1c1.1-.2 2.3-.2 3.4-.2l.5-.2h1.2l1.3-.2c1-.1 2.1-.4 3.2-.2h.1c1.2-.2 2.3-.2 3.4-.2h.8c.7-.2 1.4-.2 2-.2.5 0 1 0 1.4-.2h.7l.7.2.5-.2a8.3 8.3 0 0 1 2.8-.3h.4c1.4 0 2.8 0 4.1-.2H47.3l.8-.1c.8-.2 1.7-.2 2.5 0h.4a4.5 4.5 0 0 1 2-.1c.5-.3.9-.3 1.4-.3h3c.8 0 1.5 0 2.2-.2.6.1 1.1.2 1.7.1h1.1c.4 0 .8-.2 1.2-.1.4.1.7-.2 1-.3h5.6l2.8.2h.7c.7.3 1.4.3 2 .3 1.3-.1 2.5.3 3.8.2l.3.1c.6.2 1.2.2 1.8.1l.2-.1c0-.4-.5-.2-.6-.5h.5l3.1.2h.3c.5.2 1.1.2 1.7.2h.7c.7.3 1.5.2 2.2.2v-.2c.4 0 .7 0 1 .2.6 0 1.1 0 1.7.2l1.9.3a45.3 45.3 0 0 1 5.8.9l.3-.7-.4-.3-.8-.2c-.2 0-.3-.2-.4-.3.1-.5 0-1-.1-1.4L98 9h-1l1-.5.5-.4-.3-.4 1.4.2 1.5.3 1.8.2h.1l-.8-.6-3.3-.6a2.9 2.9 0 0 1-.5-.1l-2.1-.5c-.7-.2-1.5-.4-2.2-.4l-.5-.2H95v-.1l-.5-.3-2-.4L91 5c-.5-.1-.9-.3-1.2-.7V4c.5 0 1 0 1.6.2s1 .2 1.5 0h.6c.3.2.6.4 1 .4h1.9c.6.3 1.2.3 1.8.4l4.2.9c.5 0 1 .2 1.5.5a3.7 3.7 0 0 1 1.6 0l3.7.7h.5c0-.3-.1-.4-.3-.5zM4.4 7.8l.1-.1v.1zm2.3-2.2c-.6.3-1.2.7-2 .4.2-.2.4-.3.4-.5-.2-.4-.8 0-1-.4 0-.2.3-.2.6-.3a6 6 0 0 1 2 .5v.3zm52 4.3c-.2 0-.2 0 0-.1v.1zm1.8 0c.2-.2.3-.2.4 0h-.4zm16.8.2c.1 0 .1 0 0 0zM84 3.8l-3.4-.4h-.8L77.6 3h-1.7c-1.1-.3-2.2-.3-3.3-.3-.6 0-1.2 0-1.8-.2a1.3 1.3 0 0 0-.4 0l-3.6-.3h-.3c-.9-.3-1.7-.2-2.6-.2-.6 0-1.3 0-2-.2h-3.5c.2-.3.4-.2.5-.2h3.7c.9.2 1.7.2 2.6.2a90.9 90.9 0 0 1 4.1.1l.8.1.8.1c.7.2 1.5.2 2.2 0h.7c1 .2 1.8.1 2.7.2.6 0 1.2 0 1.8.2.6.1 1.2.2 1.8 0l.7.1 1 .2c.4 0 .8 0 1.2.3l.7.2.7.1.1.2h-.6zm14.4 4l-.2-.1c.1-.1.1 0 .2 0zm-2.1.8h-.1zm.3 1c.6 0 1.2 0 1.8.3v.2a.5.5 0 0 1-.4.3c-.7.1-1.5 0-2.2-.3l.8-.6zm-1.2-.2h-.7c.2 0 .4-.2.7 0zm-2-3.6l.3.2h-.8l.4-.2zm-3.6 4.9l-.6-.1h.6zm3-6.7h-.2v-.1h.1z" fill="#F9C784"/>
</svg>