<svg width="44" height="44" fill="none" xmlns="http://www.w3.org/2000/svg"><path d="M41 22.2l2.9-4.8a1 1 0 0 0 0-.7L38.4.7a1 1 0 0 0-1.2-.7L20.8 4a1 1 0 0 0-.7.6L18.3 9H13a1 1 0 0 0-.7.3l-12 13a1 1 0 0 0 0 1.4l12.6 12c.2.2.4.3.7.3h5.7l1.8 4.4c.1.3.4.5.7.6l17.5 3h.2a1 1 0 0 0 1-.8L44 27l-.1-.7-2.8-4zM18.4 9l14.1-2.6L25 21H8.2L18.3 9zm1 27L8.2 25H25l8.8 13.2L19.3 36zm18-.1L29 23l7.3-14.6 4.8 13.8L37.4 36z" fill="#000"/><path d="M8 21L18.5 9 33 5.5 25 21H8zM19.5 36l-11-11H25l8.5 13-14-2zM37.5 36L29 23l7.5-14.5L41 22l-3.5 14z" fill="#fff"/></svg>