<svg width="106" height="133" fill="none" xmlns="http://www.w3.org/2000/svg"><path d="M53.02 67.74c-1.36 0-2.47 1.43-2.47 3.18 0 1.75 1.1 3.18 2.47 3.18 1.35 0 2.46-1.43 2.46-3.18 0-1.75-1.1-3.18-2.46-3.18zm0 5.6c-.95 0-1.72-1.08-1.72-2.42 0-1.34.77-2.43 1.72-2.43.94 0 1.7 1.1 1.7 2.43 0 1.34-.76 2.43-1.7 2.43zM73.84 79.71h-.75v2.18h.75V79.7zM75.59 63.97h-.75v6.54h.75v-6.54zM72.09 61.92h-.76v6.54h.76v-6.54zM75.59 41.4h-.75v1.03h.75V41.4zM72.09 39.35h-.76v1.03h.76v-1.03zM75.59 44.8h-.75v1.02h.75v-1.03zM72.09 42.74h-.76v1.03h.76v-1.03zM75.59 48.18h-.75v1.03h.75v-1.03zM72.09 46.14h-.76v1.02h.76v-1.02zM75.59 51.58h-.75v1.02h.75v-1.02zM72.09 49.52h-.76v1.03h.76v-1.03zM75.59 54.96h-.75V56h.75v-1.03zM72.09 52.92h-.76v1.02h.76v-1.02zM75.59 74.68h-.75v2.19h.75v-2.19zM72.09 72.63h-.76v2.19h.76v-2.19zM62.94 74.44h-.75v2.17h.75v-2.17zM64.7 58.7h-.76v6.53h.75V58.7zM61.19 56.64h-.75v6.54h.75v-6.54zM64.7 36.13h-.76v1.02h.75v-1.02zM61.19 34.08h-.75v1.02h.75v-1.02zM64.7 39.52h-.76v1.02h.75v-1.02zM61.19 37.47h-.75v1.02h.75v-1.02zM64.7 42.9h-.76v1.03h.75v-1.02zM61.19 40.86h-.75v1.02h.75v-1.02zM64.7 46.3h-.76v1.02h.75V46.3zM61.19 44.25h-.75v1.02h.75v-1.02zM64.7 49.69h-.76v1.03h.75v-1.03zM61.19 47.64h-.75v1.03h.75v-1.03zM64.7 69.4h-.76v2.2h.75v-2.2zM61.19 67.36h-.75v2.18h.75v-2.18zM32.9 79.71h-.74v2.18h.75V79.7zM31.16 63.97h-.75v6.54h.75v-6.54zM34.66 61.92h-.75v6.54h.75v-6.54zM31.16 41.4h-.75v1.03h.75V41.4zM34.66 39.35h-.75v1.03h.75v-1.03zM31.16 44.8h-.75v1.02h.75v-1.03zM34.66 42.74h-.75v1.03h.75v-1.03zM31.16 48.18h-.75v1.03h.75v-1.03zM34.66 46.14h-.75v1.02h.75v-1.02zM31.16 51.58h-.75v1.02h.75v-1.02zM34.66 49.52h-.75v1.03h.75v-1.03zM31.16 54.96h-.75V56h.75v-1.03zM34.66 52.92h-.75v1.02h.75v-1.02zM31.16 74.68h-.75v2.19h.75v-2.19zM34.66 72.63h-.75v2.19h.75v-2.19zM43.8 74.44h-.74v2.17h.75v-2.17zM42.06 58.7h-.76v6.53h.76V58.7zM45.56 56.64h-.75v6.54h.75v-6.54zM42.06 36.13h-.76v1.02h.76v-1.02zM45.56 34.08h-.75v1.02h.75v-1.02zM42.06 39.52h-.76v1.02h.76v-1.02zM45.56 37.47h-.75v1.02h.75v-1.02zM42.06 42.9h-.76v1.03h.76v-1.02zM45.56 40.86h-.75v1.02h.75v-1.02zM42.06 46.3h-.76v1.02h.76V46.3zM45.56 44.25h-.75v1.02h.75v-1.02zM42.06 49.69h-.76v1.03h.76v-1.03zM45.56 47.64h-.75v1.03h.75v-1.03zM42.06 69.4h-.76v2.2h.76v-2.2zM45.56 67.36h-.75v2.18h.75v-2.18z" fill="#3193A0"/><path d="M92.7 66.64a40.22 40.22 0 0 0-16.05-37.71c-.84-5.88-1.6-9.99-1.76-10.88a2.23 2.23 0 0 0-2.66-3.57 2.23 2.23 0 0 0-.07 3.57c-.12.61-.61 3.31-1.23 7.38a39.88 39.88 0 0 0-5.24-2.19c-.82-5.66-1.53-9.6-1.7-10.46a2.23 2.23 0 0 0-2.65-3.57 2.23 2.23 0 0 0-.08 3.57c-.13.68-.74 4.03-1.47 8.98-4.5-.76-9.09-.76-13.58 0-.73-4.95-1.34-8.3-1.47-8.98a2.23 2.23 0 0 0-2.66-3.57 2.23 2.23 0 0 0-.08 3.57c-.16.87-.88 4.8-1.7 10.46a39.8 39.8 0 0 0-5.23 2.19c-.62-4.07-1.12-6.77-1.23-7.38a2.23 2.23 0 0 0-2.66-3.57 2.23 2.23 0 0 0-.08 3.57c-.16.9-.91 5.02-1.75 10.92l-.02-.02a40.32 40.32 0 0 0-13 16.27 4.4 4.4 0 0 0-4.88 2.26A3.42 3.42 0 0 0 7.2 50.4a3.46 3.46 0 0 0 3.4 3.87h2.98A40.24 40.24 0 0 0 26.62 91.6v.04h.05A39.96 39.96 0 0 0 65.1 99.7a40 40 0 0 0 17.17-10.88 40.21 40.21 0 0 0 9.64-17.93h.74a2.11 2.11 0 0 0 2.12-2.11 2.13 2.13 0 0 0-2.08-2.14zM76.66 34.77H73.9V18.5l.3-.07c.3 1.65 1.43 8 2.46 16.34zm-1.61 57.77a1.69 1.69 0 0 0-1.69-1.29h-3.68l1.09 5.35c-.59.3-1.18.58-1.79.85l-1.7-8.68a1.69 1.69 0 0 0-1.68-1.3h-3.68l2.35 11.72c-.7.2-1.4.39-2.1.55-.2-1.09-.68-3.6-1.6-7.97v-.24h-.05l-.01-.04c-1.1-5.17-4.95-11.3-6.52-13.65 3.67 1.42 16.07 7.48 24.63 11.78v1.74a39.1 39.1 0 0 1-3.3 2.53l-.27-1.35zm-.4 1.81c-1.03.68-2.1 1.31-3.19 1.89L70.6 92h2.76a.93.93 0 0 1 .95.67l.33 1.67zm-11.81-6.12h2.76a.93.93 0 0 1 .95.68l.5 2.55h-3.57l-.64-3.23zm4.35 3.98l1.09 5.54c-1.08.45-2.17.86-3.3 1.21l-1.34-6.75h3.55zm-9.8 5.55a8.04 8.04 0 0 0-4.49-1.13 8.06 8.06 0 0 0-4.49 1.13l-.38.28.23.2v2.29a39.5 39.5 0 0 1-3.64-.62c.18-1.03.62-3.44 1.5-7.62h13.79c.88 4.19 1.34 6.6 1.53 7.63-1.28.27-2.58.48-3.9.64v-2.43l.08-.21-.23-.16zM38.86 92.2h3.57l-1.31 6.77a39.36 39.36 0 0 1-3.31-1.23l1.05-5.54zm3.71-.75H39l.48-2.55a.94.94 0 0 1 .95-.68h2.77l-.63 3.23zm1.54-3.98h-3.68a1.67 1.67 0 0 0-1.69 1.29l-.5 2.69h-.01v.03l-1.13 5.95c-.6-.27-1.2-.56-1.79-.86l1.04-5.33h-3.68a1.67 1.67 0 0 0-1.69 1.3l-.24 1.31a39.58 39.58 0 0 1-3.36-2.61v-1.63c8.6-4.3 21.05-10.4 24.67-11.8-1.56 2.34-5.43 8.49-6.53 13.67v.04h-.06v.25a224.5 224.5 0 0 0-1.57 7.96 40.1 40.1 0 0 1-2.05-.55l2.27-11.71zm-9.5 8.75a39 39 0 0 1-3.19-1.91l.3-1.64a.93.93 0 0 1 .95-.67h2.76l-.82 4.22zM29.17 36.1l.07-.58h6.46c.75 6.14 1.44 13.3 1.73 20.5-4.39 2.13-8.4 4.13-10.03 4.95.15-8.32.74-16.62 1.77-24.87zm10.9-5.27l.07-.59h6.46c.75 6.17 1.44 13.37 1.73 20.59-2.81 1.27-6.5 3.03-10.03 4.76.15-8.28.74-16.55 1.77-24.76zm19.33-.59h6.46l.07.59a235.03 235.03 0 0 1 1.77 24.75 431.61 431.61 0 0 0-10.03-4.76c.29-7.22.98-14.41 1.73-20.58zm19.22 32.57v25.96c-1.65-.83-5.71-2.86-10.15-5.02v-24.7l.07-2.22c3.46 1.7 7 3.45 10.07 4.98v1zM67.7 56.43l.01 1.11v1.5a167.8 167.8 0 0 0-.05 3.84v20.49a425.06 425.06 0 0 0-10.14-4.81V57.6c0-1.98.04-3.98.1-5.98 2.72 1.24 6.32 2.97 10.08 4.8zM47.29 88.3h11.45c.41 1.05.75 2.14 1 3.24H46.29c.26-1.1.6-2.19 1.01-3.24zm.3-.76c1.5-3.42 3.32-6.7 5.43-9.79a59.97 59.97 0 0 1 5.41 9.8H47.6zM53 76.77c-1.3.36-2.57.84-3.78 1.46v-12.1A20.5 20.5 0 0 1 53 64.6c1.3.37 2.57.88 3.77 1.5v12.11c-1.2-.61-2.47-1.1-3.77-1.45zm-3.78-14.45c1.2-.63 2.47-1.14 3.78-1.52 1.3.38 2.57.88 3.77 1.51v2.98c-2.79-1.24-3.5-1.44-3.77-1.44-.28-.03-.96.19-3.78 1.45v-2.98zm7.55-4.71v3.88c-2.8-1.26-3.5-1.48-3.77-1.44-.17 0-.56 0-3.78 1.44v-3.88c0-2.09-.04-4.2-.12-6.3a24.1 24.1 0 0 1 3.9-1.58c1.34.4 2.65.93 3.9 1.57-.08 2.11-.13 4.22-.13 6.3zm-8.3 0l.28 7.9-.06.03.07.14.44 12.56a394.6 394.6 0 0 0-10.88 5.13V62.88c0-1.26-.01-2.53-.04-3.8v-1.54-1.1a506 506 0 0 1 10.08-4.8c.07 2 .11 4 .11 5.97zm-21.09 5.21v-1c3.07-1.53 6.61-3.28 10.08-4.98l.07 2.24v24.68c-4.44 2.17-8.5 4.2-10.15 5.02V62.82zm41.2-6.8c.28-7.2.97-14.35 1.72-20.5h6.46l.07.6a234.68 234.68 0 0 1 1.77 24.86c-1.64-.83-5.65-2.83-10.03-4.96zm4.94-41.18a1.47 1.47 0 0 1 1.45 1.76 1.48 1.48 0 0 1-2 1.08 1.47 1.47 0 0 1-.48-2.41c.27-.28.64-.43 1.03-.43zm-.37 3.66v16.27h-2.76c1.05-8.44 2.18-14.8 2.46-16.34l.3.07zm-2.34 7.71a305.91 305.91 0 0 0-2.57 22.51c-.28-5.56-.8-11.57-1.56-17.97a318.3 318.3 0 0 0-.87-6.67 39 39 0 0 1 5 2.13zm-5.04 3.29H63V13.23l.3-.08c.3 1.65 1.43 8.01 2.47 16.35zM62.63 9.56a1.47 1.47 0 0 1 1.44 1.76 1.48 1.48 0 0 1-2 1.08 1.47 1.47 0 0 1-.48-2.4c.27-.28.65-.44 1.04-.44zm-.38 3.67V29.5H59.5c1.05-8.45 2.18-14.8 2.46-16.35l.3.08zm-2.57 9.27a281.97 281.97 0 0 0-2.75 28A20.75 20.75 0 0 0 53 48.98c-1.36.38-2.68.89-3.93 1.52a281.98 281.98 0 0 0-2.75-28c4.42-.75 8.94-.75 13.36 0zm-13.18 7h-2.75V13.23l.3-.08c.28 1.54 1.4 7.9 2.45 16.35zM43.37 9.56a1.47 1.47 0 0 1 1.44 1.76 1.48 1.48 0 0 1-2 1.08 1.47 1.47 0 0 1-.48-2.4c.28-.28.65-.44 1.04-.44zm-.38 3.67V29.5h-2.76c1.03-8.34 2.16-14.7 2.47-16.35l.3.08zm-2.8 10.85c-.29 2.04-.58 4.28-.87 6.67a260.3 260.3 0 0 0-1.56 17.98 305.9 305.9 0 0 0-2.57-22.52 39.07 39.07 0 0 1 5-2.13zm-4.58 10.7h-2.76V18.5l.3-.07c.28 1.54 1.4 7.9 2.46 16.34zm-3.14-19.94a1.47 1.47 0 0 1 1.44 1.76 1.48 1.48 0 0 1-2 1.08 1.47 1.47 0 0 1-.9-1.37 1.48 1.48 0 0 1 1.46-1.47zm-.37 3.66v16.27h-2.77c1.04-8.33 2.17-14.7 2.47-16.34l.3.07zM7.92 50.82a2.7 2.7 0 0 1 2.33-2.67c.42-.05.86 0 1.26.14l.33.12.14-.32a3.73 3.73 0 0 1 5.85-1.3c.59.5 1 1.2 1.18 1.96l.1.42.4-.16a2.29 2.29 0 0 1 2.51.51 2.34 2.34 0 0 1-1.64 3.99H10.6a2.68 2.68 0 0 1-2.68-2.69zm5.78 10.56c0-2.39.22-4.77.64-7.12h6.04a3.07 3.07 0 0 0 3.05-3.47 3.1 3.1 0 0 0-3.8-2.61 4.49 4.49 0 0 0-2.58-2.74A39.55 39.55 0 0 1 29.2 30.01a317.9 317.9 0 0 0-.78 6.01 229.3 229.3 0 0 0-1.8 26.8V90.6A39.35 39.35 0 0 1 13.7 61.38zm35.31 39.24v-2.36a7.8 7.8 0 0 1 3.9-.88c1.35-.05 2.69.26 3.89.88v2.38a40.04 40.04 0 0 1-7.79-.02zm30.36-9.94V62.82a229.1 229.1 0 0 0-1.8-26.8A317 317 0 0 0 76.8 30a39.2 39.2 0 0 1 15.18 36.3 2.7 2.7 0 0 0-4.57.77 1.9 1.9 0 0 0-2.24 1.73 1.93 1.93 0 0 0 1.91 2.09h4.06a39.33 39.33 0 0 1-11.77 19.8zm13.3-20.55h-5.59a1.17 1.17 0 0 1-1.14-1.39 1.17 1.17 0 0 1 1.08-.95c.17 0 .34.02.5.09l.4.16.1-.43a1.97 1.97 0 0 1 2.9-1.24c.36.2.64.52.8.9l.15.32.33-.12a1.38 1.38 0 0 1 1.43.32 1.37 1.37 0 0 1-.97 2.34z" fill="#3193A0"/></svg>