<svg width="676" height="369" fill="none" xmlns="http://www.w3.org/2000/svg">
  <path d="M624.2 291.8a763 763 0 01-5.7 12.4l-1.5 3.1c-5.6 11.8-10.8 22.1-15.3 30.6-4 7.7-8.2 17.9-15.5 22.4a55.5 55.5 0 01-26 8.7H78.2a55.8 55.8 0 01-42.7-19 133.7 133.7 0 01-28.5-53.2C-13 227.4 11.5 137.9 55.3 78l5.7-7.3c13.5-17 28.6-31.3 44.7-41.4 28.6-17.9 60.3-23 91.4-7.9a200.3 200.3 0 0082 20.7C333.8 44 385 23.7 445 10.6l7.3-1.5C495.4.3 543-4.3 599.6 5.4a120.2 120.2 0 0124.6 7 79.4 79.4 0 0148 58.2 109 109 0 011.6 7.4c11 62.8-21.5 152-49.6 213.8z" fill="#D9EEF1"/>
  <path opacity=".2" d="M537.5 360.5v8.5l-80.9-1.3h-97.5l-92.7.1-23.6.2h-.2l-52.8 1H138v-8l24.6-15 49.3-.5h2.4l23.8-.2h10.2l18.8-.2h.1l146.2-1.3h6.7l19.8-.2h8.7l1.3-.1H456.6l8.2-.1H468l39.4-.4 30.1 17.5z" fill="#324B4F"/>
  <path d="M537.5 360.5v8.4l-80.7.1H138v-7.5l24.5-18.5H507.9l29.6 17.5z" fill="#CCE2E6"/>
  <path d="M422.6 236.5v92.6c0 .6-.4 1.1-1 1.5-.7.4-1.6.7-2.5.7L247 334a5 5 0 01-2.6-.6c-.6-.5-1-1-1-1.6v-95.4c0-.6.4-1.1 1-1.5a5 5 0 012.5-.7H419c1 0 1.9.3 2.5.7.7.4 1 1 1 1.5z" fill="#5B5D74"/>
  <path d="M248.4 238.6h168.3v88L248.4 329v-90.4z" fill="#397F88"/>
  <path d="M311.9 251h-54.7a.3.3 0 01-.3-.3.3.3 0 01.3-.3H312a.3.3 0 010 .5h-.2zM311.9 255.9H257a.3.3 0 010-.5H311.9a.3.3 0 110 .5zM311.9 260.8H257a.3.3 0 010-.4l.2-.1h54.7a.3.3 0 110 .5z" fill="#F2F2F2"/>
  <path opacity=".1" d="M537.5 360.8v8.2H138v-8.3h399.5z" fill="#11191B"/>
  <path d="M334.5 257.2a28.2 28.2 0 100-56.4 28.2 28.2 0 000 56.4z" fill="#FBBEBE"/>
  <path d="M362.7 272.4s-54.7 6.6-49.5 0c2-2.4 2.4-9.5 2.3-17.5 0-2.4 0-5-.2-7.5-.6-12-2-23.9-2-23.9S361 201 355.5 219a62.8 62.8 0 00.1 26.8 161.2 161.2 0 007 26.7z" fill="#FBBEBE"/>
  <path d="M344.9 270.2c6.3-1.2 13-3.3 19-.9 1.5.7 3 1.6 4.5 2.1 1.6.6 3.4.7 5 1a22.4 22.4 0 0113.8 11c3 5.3 4.6 11.1 6.1 17l3.8 14.1c3.3 12.3 6.6 24.8 7.4 37.5-46 2.6-92 3-137.9.8a37 37 0 005.8-18.1c-.2-6.4-4-12.8-2.6-19 .9-4.1 3.6-7.4 5.3-11.2 4.8-10.7 1-25.1 9.5-33.3a20 20 0 0114.7-4.9c6.7.2 13.6 2.3 20.3 3.4 8.6 1.3 16.6 2 25.3.5z" fill="#C2926B"/>
  <path opacity=".1" d="M417 333.1v.8l-.2 1.2-.7 9.8-.9 11.7-.2 3.3-.6 7v.1l-58.8.6-96.5 1v.4h-.1V368.4l.2-7.5.5-14.8.4-12.5v-1.2a5.3 5.3 0 012-4 5.9 5.9 0 014.3-1.4l10 .8h1.7a931 931 0 00112.4 1c6.7-.4 13.5-1 20.1-1.6a6 6 0 014.6 1.5 5.5 5.5 0 011.8 4.4z" fill="#000"/>
  <path d="M258.9 368.7v.3h155.5v-2.4l.5-7.4.3-3.3.9-12.4.7-9.9v-.2a5.8 5.8 0 00-3.5-5.7c-.9-.4-1.9-.6-2.9-.5a515.7 515.7 0 01-22.8 1.8 902 902 0 01-109.6-1l-1.7-.2-10-.8a5.8 5.8 0 00-6.3 5.6l-.3 12.2-.5 15.4-.3 8.8v-.3z" fill="#97A6A8"/>
  <path opacity=".1" d="M417 335l-.8 8.5-1 12.5-.2 3.2-.6 7v1.3-.9 1.9H355l-96-.3v-.1l.2-8 .5-15.3.4-10.3a3.5 3.5 0 013.7-3.3 524.4 524.4 0 0014.1 1c7.2.4 16.1.9 26.4 1.3a859 859 0 00108.8-2.2 3.4 3.4 0 013.6 2.3c.2.5.2 1 .2 1.5z" fill="#000"/>
  <path d="M316.6 237.6c0 3.9-1.7 7.5-3.2 11-5.5 13-7.9 27-7 41 .4 6.1 1.4 12.2.4 18.2-1 6-4.6 12-10.4 13.6A29.6 29.6 0 00328 320c4.9-3.5 8.5-8.4 12-13.3-.4 8.7-3 17.1-7.3 24.6a56.9 56.9 0 0040.4-22.4c2.3-3.2 4.4-6.7 5.3-10.6 1.7-7.1-.7-14.5-2.5-21.7-1.5-6-2.6-12-3.4-18-.2-2-.4-4 .1-6 .5-2.2 2-4 3.1-6.1 3-5.8 3.1-12.8 1.6-19.2a81 81 0 00-7.8-18 29.5 29.5 0 00-9.6-12.2c-2.8-1.7-6-2.4-9.2-3.1l-14-3c-3-.7-6.2-1.3-9.2-.8-5.2.8-10.7 3.4-13.9 7.3-2.5 3-7 9.7-7.4 13.6-.4 3.7 2.8 9.7 3.4 13.5.7 5 1.2 3.3 4 6.4 1.8 1.8 2.9 4 3 6.6z" fill="#3F3D56"/>
</svg>
