<svg width="817" height="385" fill="none" xmlns="http://www.w3.org/2000/svg">
  <g clip-path="url(#clip0)">
    <path d="M703.3 302.1a720 720 0 01-5.9 12.8l-1.5 3.3a1034 1034 0 01-15.8 31.6 50 50 0 01-42.9 26.7l-102 1.1h-1l-8.7.1-7.5.1-23 .3h-.9l-11.6.1h-.4l-72 .8-64.1.7h-7.5l-46.4.6-30.1.3h-.4l-95 1-28.5.4a57.8 57.8 0 01-44.2-19.7 138.4 138.4 0 01-29.6-55c-20.7-71.9 4.6-164.5 50-226.5l5.8-7.6a188 188 0 0146.4-42.8c29.6-18.6 62.4-23.8 94.6-8.2A207.4 207.4 0 00346 43.6c56.6 1.8 109.7-19.1 172-32.6l7.5-1.6c44.4-9 93.7-13.8 152.4-3.8a124.5 124.5 0 0125.4 7.2A82.2 82.2 0 01753.1 73l1.6 7.7c11.5 65-22.2 157.3-51.4 221.3z" fill="#D9EEF1"/>
    <path d="M610 370.3v7l-81.5.7h-.8l-31 .3h-10.4l-57.4.6-94.2.9-24 .2h-.3L204 381v-8l25-15 50.2-.5h2.5l24.1-.2H316.2l19.1-.2h.2l148.7-1.3H491l20.2-.2h8.9l1.2-.1h6.9l8.3-.1h3.3l40-.4 30.2 15.3z" fill="#65617D"/>
    <path opacity=".2" d="M610 370.3v7l-81.5.7h-.8l-31 .3h-10.4l-57.4.6-94.2.9-24 .2h-.3L204 381v-8l25-15 50.2-.5h2.5l24.1-.2H316.2l19.1-.2h.2l148.7-1.3H491l20.2-.2h8.9l1.2-.1h6.9l8.3-.1h3.3l40-.4 30.2 15.3z" fill="#324B4F"/>
    <path d="M491.6 248.5v92.6c0 .6-.4 1.1-1 1.5-.7.4-1.6.7-2.5.7L316 346a5 5 0 01-2.6-.6c-.6-.5-1-1-1-1.6v-95.4c0-.6.4-1.1 1-1.5a5 5 0 012.5-.7H488c1 0 1.9.3 2.5.7.7.4 1 1 1 1.5z" fill="#5B5D74"/>
    <path d="M317.4 250.6h168.3v88L317.4 341v-90.4z" fill="#397F88"/>
    <path d="M380.9 263h-54.7a.3.3 0 01-.3-.3.3.3 0 01.3-.3H381a.3.3 0 010 .5h-.2zM380.9 267.9H326a.3.3 0 010-.5H380.9a.3.3 0 110 .5zM380.9 272.8H326a.3.3 0 010-.4l.2-.1h54.7a.3.3 0 110 .5z" fill="#F2F2F2"/>
    <path opacity=".1" d="M610 370v7.1l-81.5.8h-.8l-31 .3h-.8l-9.4.1h-.2l-57.4.6-94.2.9-24 .2h-.3L204 381v-8.3l108.6-.7h.3l22-.1 151.9-1h3.8l40-.4h2.9l76.5-.5z" fill="#11191B"/>
    <path d="M403.5 269.2a28.2 28.2 0 100-56.4 28.2 28.2 0 000 56.4z" fill="#FBBEBE"/>
    <path d="M431.7 284.4s-54.7 6.6-49.5 0c2-2.4 2.4-9.5 2.3-17.5 0-2.4 0-5-.2-7.5-.6-12-2-23.9-2-23.9S430 213 424.5 231a62.8 62.8 0 00.1 26.8 161.2 161.2 0 007 26.7z" fill="#FBBEBE"/>
    <path d="M413.9 282.2c6.3-1.2 13-3.3 19-.9 1.5.7 3 1.6 4.5 2.1 1.6.6 3.4.7 5 1a22.4 22.4 0 0113.8 11c3 5.3 4.6 11.1 6.1 17l3.8 14.1c3.3 12.3 6.6 24.8 7.4 37.5-46 2.6-92 3-137.9.8a37 37 0 005.8-18.1c-.2-6.4-4-12.8-2.6-19 .9-4.1 3.6-7.4 5.3-11.2 4.8-10.7 1-25.1 9.5-33.3a20 20 0 0114.7-4.9c6.7.2 13.6 2.3 20.3 3.4 8.6 1.3 16.6 2 25.3.5z" fill="#8C849B"/>
    <path opacity=".1" d="M486 345v.7l-.2 1.2-.7 9.5-.9 11.5-.2 3.2-.6 6.9-58.8.6-96.5 1v.4h-.1V379.4l.2-7.3.5-14.4.4-12.2v-1.3c0-.7.3-1.4.6-2 .3-.7.8-1.3 1.4-1.8a6 6 0 014.3-1.4l10 .7 1.7.2a953.4 953.4 0 00112.4.8c6.7-.4 13.5-.9 20.1-1.5a6.2 6.2 0 014.6 1.5c.6.5 1.1 1.2 1.4 2 .3.7.4 1.5.4 2.2z" fill="#000"/>
    <path d="M328 380v-.5l96.6-1 58.8-.5h.2v-.1l.5-7.3.3-3.2.9-12.2.7-9.7v-.3a5.6 5.6 0 00-3.5-5.6 6 6 0 00-2.9-.4 524.5 524.5 0 01-22.8 1.8c-43.4 2.5-86.5.5-109.7-1.1l-1.7-.1-10-.8c-1.4-.1-2.8.3-4 1.2a5.7 5.7 0 00-2.3 4.3l-.3 12-.5 15.1-.3 7.8v.6z" fill="#3F3D56"/>
    <path opacity=".1" d="M486 346l-.7 8.6-1 12.9-.2 3.2-.6 7.2v.4l-.1.9v-.8h-.1l-58.8.5L328 380v-.2l.3-8 .5-15.8.4-10.5a3.6 3.6 0 011.7-3c.6-.4 1.3-.6 2-.5a527 527 0 0014.1 1 838.3 838.3 0 00135.2-.9 3.4 3.4 0 012.4.7 3.4 3.4 0 011.2 1.7c.2.5.2 1 .2 1.5z" fill="#000"/>
    <path d="M385.6 249.6c0 3.9-1.7 7.5-3.2 11-5.5 13-7.9 27-7 41 .4 6.1 1.4 12.2.4 18.2-1 6-4.6 12-10.4 13.6A29.6 29.6 0 00397 332c4.9-3.5 8.5-8.4 12-13.3-.4 8.7-3 17.1-7.3 24.6a56.9 56.9 0 0040.4-22.4c2.3-3.2 4.4-6.7 5.3-10.6 1.7-7.1-.7-14.5-2.5-21.7-1.5-6-2.6-12-3.4-18-.2-2-.4-4 .1-6 .5-2.2 2-4 3.1-6.1 3-5.8 3.1-12.8 1.6-19.2a81 81 0 00-7.8-18 29.5 29.5 0 00-9.6-12.2c-2.8-1.7-6-2.4-9.2-3.1l-14-3c-3-.7-6.2-1.3-9.2-.8-5.2.8-9 4.5-12.1 8.4-2.6 3-8.7 8.6-9.2 12.5-.4 3.7 2.8 9.7 3.4 13.5.7 5 1.2 3.3 4 6.4 1.8 1.8 2.9 4 3 6.6z" fill="#3F3D56"/>
  </g>
  <defs>
    <clipPath id="clip0">
      <path fill="#fff" d="M0 0h817v385H0z"/>
    </clipPath>
  </defs>
</svg>
