<svg width="817" height="385" viewBox="0 0 817 385" fill="none" xmlns="http://www.w3.org/2000/svg">
<path d="M703.349 302.118C702.569 303.842 701.792 305.543 701.017 307.221C699.806 309.827 698.612 312.383 697.433 314.888C696.909 315.998 696.385 317.087 695.874 318.177C690.092 330.291 684.694 341.006 680.11 349.817C675.949 357.802 669.772 364.492 662.225 369.186C654.678 373.881 646.039 376.407 637.213 376.501L535.266 377.639H534.191L525.451 377.735L517.976 377.818L495.052 378.073H494.124L482.454 378.204H482.098L410.167 379.004L345.96 379.693L338.491 379.776L292.106 380.293H292.052L261.969 380.624H261.646L166.523 381.679L138.066 381.996C135.643 382.024 133.221 381.9 130.813 381.624V381.624C129.993 381.527 129.172 381.417 128.359 381.286C115.087 379.185 102.918 372.483 93.8792 362.297C81.6375 348.487 72.7302 332.373 66.7471 314.888C65.8822 312.364 65.0755 309.809 64.327 307.221C43.615 235.41 68.8647 142.763 114.309 80.7637C116.214 78.1712 118.15 75.6431 120.117 73.1793L120.164 73.1242C134.14 55.5283 149.811 40.8283 166.503 30.3756C196.082 11.8214 228.854 6.59506 261.088 22.1707C288.362 35.3538 313.826 41.5523 338.512 43.2347C341.006 43.4002 343.5 43.5243 345.98 43.6001C402.604 45.4273 455.672 24.5012 517.989 10.994C520.47 10.4562 522.957 9.9253 525.465 9.42197C569.921 0.348255 619.237 -4.43682 677.884 5.62287C683.977 6.64378 689.99 8.1186 695.874 10.0356C698.46 10.8906 700.952 11.8099 703.349 12.7936C731.342 24.4736 746.609 46.0547 753.096 73.0966C753.71 75.6063 754.241 78.1598 754.689 80.7569C766.191 145.804 732.505 238.071 703.349 302.118Z" fill="#D9EEF1"/>
<path d="M607.027 372.327V379.465L523.536 380.234L522.646 380.251L490.913 380.542L490.155 380.553L480.51 380.635H480.224L421.431 381.179L324.92 382.074H324.838L300.299 382.305L300.035 382.31L191 383.309V375.072L216.638 359.697L268.078 359.268L269.177 359.263L269.54 359.257L270.639 359.241L295.337 359.038L296.441 359.032L296.793 359.027L297.892 359.021L305.811 358.955L306.02 358.95L325.558 358.785H325.717L478.169 357.5L481.9 357.473H482.274L485.121 357.445L505.812 357.275L506.911 357.258L507.928 357.247H508.456L514.891 357.198L516.166 357.181L517.876 357.17L523.234 357.121L531.736 357.05L532.835 357.039L534.747 357.028H535.105L576.163 356.676L607.027 372.327Z" fill="#65617D"/>
<path opacity="0.2" d="M607.027 372.327V379.465L523.536 380.234L522.646 380.251L490.913 380.542L490.155 380.553L480.51 380.635H480.224L421.431 381.179L324.92 382.074H324.838L300.299 382.305L300.035 382.31L191 383.309V375.072L216.638 359.697L268.078 359.268L269.177 359.263L269.54 359.257L270.639 359.241L295.337 359.038L296.441 359.032L296.793 359.027L297.892 359.021L305.811 358.955L306.02 358.95L325.558 358.785H325.717L478.169 357.5L481.9 357.473H482.274L485.121 357.445L505.812 357.275L506.911 357.258L507.928 357.247H508.456L514.891 357.198L516.166 357.181L517.876 357.17L523.234 357.121L531.736 357.05L532.835 357.039L534.747 357.028H535.105L576.163 356.676L607.027 372.327Z" fill="#324B4F"/>
<path d="M488.575 250.518V343.109C488.564 343.675 488.199 344.216 487.555 344.62C486.912 345.025 486.039 345.263 485.117 345.284L312.96 348.091C312.015 348.091 311.108 347.863 310.435 347.456C309.763 347.049 309.379 346.496 309.367 345.917V250.518C309.379 249.943 309.756 249.395 310.419 248.988C311.082 248.582 311.978 248.351 312.915 248.344H485.027C485.964 248.351 486.86 248.582 487.523 248.988C488.186 249.395 488.564 249.943 488.575 250.518V250.518Z" fill="#5B5D74"/>
<path d="M314.439 252.57H482.658V340.643L314.439 343.019V252.57Z" fill="#397F88"/>
<path d="M377.905 264.954H323.167C323.094 264.954 323.025 264.925 322.973 264.873C322.922 264.822 322.893 264.752 322.893 264.679C322.893 264.606 322.922 264.536 322.973 264.485C323.025 264.433 323.094 264.405 323.167 264.405H377.905C377.978 264.405 378.048 264.433 378.099 264.485C378.151 264.536 378.18 264.606 378.18 264.679C378.18 264.752 378.151 264.822 378.099 264.873C378.048 264.925 377.978 264.954 377.905 264.954Z" fill="#F2F2F2"/>
<path d="M377.905 269.896H323.167C323.094 269.896 323.025 269.867 322.973 269.816C322.922 269.764 322.893 269.694 322.893 269.621C322.893 269.549 322.922 269.479 322.973 269.427C323.025 269.376 323.094 269.347 323.167 269.347H377.905C377.978 269.347 378.048 269.376 378.099 269.427C378.151 269.479 378.18 269.549 378.18 269.621C378.18 269.694 378.151 269.764 378.099 269.816C378.048 269.867 377.978 269.896 377.905 269.896Z" fill="#F2F2F2"/>
<path d="M377.905 274.838H323.167C323.094 274.838 323.025 274.809 322.973 274.758C322.922 274.706 322.893 274.636 322.893 274.564C322.893 274.491 322.922 274.421 322.973 274.369C323.025 274.318 323.094 274.289 323.167 274.289H377.905C377.978 274.289 378.048 274.318 378.099 274.369C378.151 274.421 378.18 274.491 378.18 274.564C378.18 274.636 378.151 274.706 378.099 274.758C378.048 274.809 377.978 274.838 377.905 274.838Z" fill="#F2F2F2"/>
<path opacity="0.1" d="M607.027 372.327V379.465L523.536 380.234L522.646 380.251L490.913 380.542L490.155 380.553L480.51 380.635H480.224L421.431 381.179L324.92 382.074H324.838L300.299 382.304L300.035 382.31L191 383.309V375.072L302.294 374.342H302.558L325.085 374.188H325.189L480.763 373.161H480.922L481.016 373.156H481.274L483.906 373.139H484.709L525.646 372.865L528.065 372.854L528.603 372.848L607.027 372.327Z" fill="#11191B"/>
<path d="M400.481 271.192C416.061 271.192 428.691 258.572 428.691 243.005C428.691 227.437 416.061 214.817 400.481 214.817C384.901 214.817 372.271 227.437 372.271 243.005C372.271 258.572 384.901 271.192 400.481 271.192Z" fill="#FBBEBE"/>
<path d="M428.696 286.392C428.696 286.392 374.013 292.982 379.234 286.392C381.125 284.009 381.647 276.947 381.542 268.902C381.509 266.458 381.422 263.927 381.295 261.406C380.691 249.325 379.234 237.519 379.234 237.519C379.234 237.519 427.047 215.004 421.551 232.851C419.353 240.061 420.073 250.187 421.744 259.693C422.233 262.466 422.799 265.184 423.392 267.765C424.841 274.061 426.611 280.278 428.696 286.392V286.392Z" fill="#FBBEBE"/>
<path d="M410.85 284.157C417.176 282.987 423.875 280.862 429.827 283.311C431.394 283.954 432.833 284.893 434.438 285.431C436.043 285.969 437.802 286.101 439.472 286.48C445.342 287.809 450.101 292.273 453.157 297.462C456.212 302.652 457.795 308.522 459.345 314.332L463.137 328.516C466.434 340.844 469.732 353.277 470.496 366.022C424.588 368.648 378.575 368.91 332.641 366.808C335.63 361.129 338.686 355.105 338.433 348.686C338.18 342.267 334.482 335.935 335.817 329.609C336.669 325.578 339.428 322.256 341.115 318.505C345.924 307.786 342.181 293.36 350.634 285.2C354.437 281.532 359.976 280.143 365.269 280.318C372.018 280.544 378.926 282.647 385.603 283.674C394.154 284.97 402.233 285.738 410.85 284.157Z" fill="#8C849B"/>
<path opacity="0.1" d="M482.791 346.895L482.736 347.681V347.735L482.643 348.999L481.912 359.163L481.027 371.409L480.774 374.857L480.225 382.238V382.331L421.42 382.88L324.921 383.924V384.385H324.844V383.924V383.77L325.091 375.884L325.564 360.475L325.97 347.411L326.009 346.11C326.033 345.325 326.217 344.552 326.55 343.84C326.883 343.128 327.357 342.491 327.944 341.969C328.532 341.446 329.22 341.048 329.966 340.8C330.712 340.552 331.501 340.459 332.285 340.525C334.879 340.745 338.248 341.014 342.276 341.3L343.925 341.42C367.188 343.035 410.182 345.122 453.565 342.519C454.477 342.469 455.395 342.414 456.313 342.348C463.04 341.926 469.761 341.382 476.416 340.701C477.258 340.613 478.108 340.71 478.908 340.986C479.707 341.262 480.437 341.71 481.044 342.297C481.652 342.885 482.124 343.599 482.425 344.389C482.727 345.179 482.852 346.025 482.791 346.868V346.895Z" fill="black"/>
<path d="M324.902 382.694V382.233L421.419 381.184L480.223 380.635H480.388V380.542L480.937 373.161L481.174 369.866L482.075 357.45L482.784 347.621V347.379C482.817 346.926 482.796 346.471 482.723 346.023C482.727 346.005 482.727 345.986 482.723 345.968C482.572 345.041 482.195 344.166 481.624 343.42C481.019 342.645 480.226 342.036 479.321 341.652C478.415 341.267 477.426 341.12 476.447 341.223C469.792 341.904 463.071 342.448 456.344 342.871C455.426 342.937 454.508 342.992 453.596 343.041C410.213 345.616 367.22 343.53 343.956 341.943L342.307 341.822C338.279 341.536 334.91 341.273 332.316 341.048C330.889 340.927 329.468 341.339 328.327 342.204C327.187 343.07 326.407 344.326 326.139 345.732C326.083 346.029 326.05 346.33 326.04 346.632L325.666 358.801L325.155 374.216L324.913 382.101V382.255V382.716L324.902 382.694Z" fill="#3F3D56"/>
<path opacity="0.1" d="M482.955 349.054L482.279 357.472L481.274 370.02L481.021 373.161L480.471 380.196L480.438 380.547V380.64L480.356 381.453L480.416 380.64H480.257L421.453 381.19L324.92 382.233V382.079L325.189 374.194L325.739 358.785L326.091 348.543C326.108 347.961 326.271 347.392 326.564 346.888C326.858 346.385 327.273 345.963 327.772 345.66C328.395 345.279 329.122 345.106 329.85 345.166C331.004 345.26 332.422 345.369 334.076 345.49C336.763 345.688 340.077 345.918 343.935 346.16C351.08 346.61 360.043 347.094 370.315 347.489C398.893 348.587 437.473 348.955 474.118 345.748C475.767 345.605 477.471 345.446 479.136 345.287C479.795 345.221 480.459 345.347 481.048 345.649C481.215 345.732 481.374 345.832 481.521 345.946C481.999 346.292 482.378 346.758 482.62 347.297C482.676 347.404 482.722 347.516 482.758 347.632C482.923 348.087 482.99 348.571 482.955 349.054V349.054Z" fill="black"/>
<path d="M382.635 251.643C382.679 255.487 380.898 259.111 379.387 262.664C373.884 275.606 371.501 289.659 372.429 303.69C372.831 309.73 373.847 315.771 372.831 321.756C371.814 327.742 368.198 333.711 362.389 335.43C372.023 341.168 385.064 340.564 394.132 333.969C398.963 330.455 402.563 325.551 406.085 320.73C405.667 329.391 403.157 337.822 398.77 345.303C406.7 344.602 414.393 342.244 421.353 338.383C428.312 334.521 434.382 329.242 439.17 322.888C441.538 319.697 443.599 316.194 444.511 312.328C446.21 305.189 443.841 297.77 442.033 290.637C440.522 284.674 439.389 278.621 438.642 272.515C438.406 270.56 438.213 268.55 438.697 266.639C439.247 264.405 440.714 262.515 441.797 260.478C444.874 254.69 444.946 247.683 443.368 241.324C441.791 234.965 438.703 229.1 435.641 223.307C433.19 218.661 430.53 213.802 426.046 211.072C423.243 209.37 420.001 208.662 416.769 207.975L402.826 204.993C399.776 204.34 396.638 203.686 393.555 204.164C388.351 204.977 384.685 208.733 381.464 212.588C378.942 215.586 372.776 221.215 372.341 225.141C371.946 228.76 375.144 234.822 375.688 238.639C376.403 243.581 376.908 241.934 379.7 244.965C381.464 246.843 382.602 249.012 382.635 251.643Z" fill="#3F3D56"/>
<path d="M294.363 190.518C292.457 190.518 291.305 190.279 290.908 189.803C290.432 189.406 290.352 188.572 290.67 187.301C290.749 186.904 291.146 185.117 291.861 181.939C292.576 178.842 293.45 175.029 294.482 170.502C295.594 166.054 296.746 161.209 297.938 155.967C299.208 150.725 300.4 145.8 301.512 141.193C299.844 141.352 298.613 141.233 297.818 140.836C297.024 140.359 296.627 139.764 296.627 139.049C296.706 138.255 297.143 137.46 297.938 136.666C298.811 135.872 300.042 135.197 301.631 134.641C301.949 134.482 302.425 134.323 303.061 134.164C303.458 132.814 303.815 131.424 304.133 129.994C304.451 128.803 304.768 127.532 305.086 126.182C305.404 124.831 305.721 123.521 306.039 122.25L314.379 86.627C314.855 84.8001 315.57 83.4499 316.523 82.5762C317.556 81.623 319.423 80.8288 322.123 80.1934C324.347 79.6374 325.896 79.4388 326.77 79.5977C327.643 79.6771 328.04 79.9154 327.961 80.3125C327.723 81.1862 327.127 83.291 326.174 86.627C325.221 89.9629 324.069 94.0534 322.719 98.8984C321.448 103.664 320.058 108.946 318.549 114.744C317.04 120.463 315.57 126.142 314.141 131.781C318.906 131.066 324.704 130.471 331.535 129.994C334.156 129.676 336.698 129.478 339.16 129.398C341.702 129.319 344.124 129.319 346.428 129.398C347.54 125.109 348.612 120.82 349.645 116.531C350.757 112.242 351.789 108.271 352.742 104.617C353.695 100.964 354.529 97.7467 355.244 94.9668C356.038 92.1074 356.634 90.0026 357.031 88.6523C357.508 87.1432 357.945 85.9121 358.342 84.959C358.818 84.0059 359.335 83.2513 359.891 82.6953C360.526 82.1393 361.241 81.7422 362.035 81.5039C362.829 81.2656 363.743 81.0671 364.775 80.9082C365.331 80.9082 366.007 80.8685 366.801 80.7891C367.436 80.7891 368.191 80.7891 369.064 80.7891C369.938 80.7096 370.931 80.7493 372.043 80.9082C369.025 89.0098 366.205 97.2305 363.584 105.57C361.042 113.831 358.66 121.893 356.436 129.756C357.865 129.915 359.096 130.034 360.129 130.113C361.241 130.193 362.115 130.312 362.75 130.471C364.656 130.788 365.848 131.305 366.324 132.02C366.88 132.734 366.721 133.767 365.848 135.117L364.418 136.904C363.941 137.54 363.346 138.294 362.631 139.168C361.916 139.962 361.003 140.876 359.891 141.908C359.255 141.67 358.58 141.432 357.865 141.193C357.23 140.955 356.594 140.717 355.959 140.479C355.165 140.24 354.41 140.002 353.695 139.764C353.139 141.67 352.623 143.536 352.146 145.363C351.67 147.111 351.233 148.898 350.836 150.725C349.883 154.617 348.969 158.628 348.096 162.758C347.381 166.332 346.626 170.264 345.832 174.553C345.117 178.921 344.561 183.21 344.164 187.42C343.529 187.738 342.893 187.936 342.258 188.016C341.622 188.174 341.066 188.294 340.59 188.373C340.034 188.452 339.478 188.532 338.922 188.611H338.803H338.564H338.326C338.008 188.611 337.691 188.611 337.373 188.611C337.055 188.611 336.738 188.532 336.42 188.373C336.023 188.294 335.626 188.174 335.229 188.016C334.831 187.857 334.434 187.698 334.037 187.539C333.719 187.46 333.362 187.301 332.965 187.062C333.6 184.441 334.077 181.979 334.395 179.676C334.792 177.372 335.07 175.347 335.229 173.6C335.467 171.535 335.626 169.708 335.705 168.119C335.785 166.054 335.546 163.79 334.99 161.328C334.514 158.866 333.719 156.443 332.607 154.061C331.575 151.678 330.264 149.454 328.676 147.389C327.167 145.324 325.419 143.576 323.434 142.146C321.448 140.796 319.542 139.923 317.715 139.525C315.967 139.128 314.18 139.009 312.354 139.168C311.798 141.551 311.281 143.854 310.805 146.078C310.328 148.302 309.931 150.447 309.613 152.512C308.74 157.118 307.906 161.606 307.111 165.975C306.476 169.708 305.801 173.56 305.086 177.531C304.451 181.582 303.974 185.037 303.656 187.896C302.385 188.532 301.194 189.008 300.082 189.326C298.97 189.723 297.977 190.001 297.104 190.16C296.15 190.398 295.237 190.518 294.363 190.518ZM341.543 137.619C338.763 137.301 336.102 137.143 333.561 137.143C331.098 137.063 328.914 137.023 327.008 137.023C328.596 137.897 329.986 139.049 331.178 140.479C332.449 141.908 333.759 143.536 335.109 145.363C336.38 147.031 337.413 148.858 338.207 150.844C339.001 152.829 339.676 154.736 340.232 156.562C340.868 153.227 341.543 149.97 342.258 146.793C342.973 143.616 343.648 140.637 344.283 137.857C343.807 137.778 343.33 137.738 342.854 137.738C342.456 137.659 342.02 137.619 341.543 137.619ZM431.971 144.291C430.859 145.88 429.429 147.865 427.682 150.248C425.934 152.551 424.107 154.895 422.201 157.277C420.374 159.581 418.548 161.725 416.721 163.711C414.973 165.617 413.504 166.967 412.312 167.762C411.518 168.238 410.605 168.635 409.572 168.953C408.54 169.271 407.467 169.469 406.355 169.549C405.323 169.628 404.33 169.549 403.377 169.311C402.424 169.152 401.59 168.834 400.875 168.357C400.16 167.801 399.564 167.007 399.088 165.975C398.691 165.101 398.294 163.949 397.896 162.52C397.579 161.09 397.46 159.303 397.539 157.158C395.633 160.335 393.528 162.798 391.225 164.545C388.921 166.213 386.737 167.444 384.672 168.238C382.289 169.112 379.906 169.628 377.523 169.787C376.411 169.787 375.22 169.39 373.949 168.596C372.678 167.881 371.606 166.729 370.732 165.141C369.859 163.473 369.303 161.368 369.064 158.826C368.826 156.205 369.144 153.107 370.018 149.533C371.13 144.688 372.877 140.28 375.26 136.309C377.722 132.337 380.383 128.962 383.242 126.182C386.102 123.322 388.921 121.178 391.701 119.748C394.481 118.318 396.785 117.683 398.611 117.842C400.756 118.239 402.503 118.874 403.854 119.748C404.965 120.542 405.68 121.734 405.998 123.322C406.395 124.831 405.76 126.857 404.092 129.398C405.204 129.16 406.117 129.001 406.832 128.922C407.626 128.842 408.222 128.803 408.619 128.803C409.096 128.803 409.413 128.842 409.572 128.922C409.652 129.081 409.691 129.438 409.691 129.994C409.691 130.471 409.572 131.384 409.334 132.734C409.096 134.085 408.738 135.911 408.262 138.215C407.785 140.518 407.15 143.497 406.355 147.15C406.197 147.865 406.038 148.54 405.879 149.176C405.799 149.732 405.68 150.327 405.521 150.963C405.442 151.519 405.323 152.194 405.164 152.988C405.005 153.783 404.807 154.775 404.568 155.967C404.489 156.682 404.449 157.476 404.449 158.35C404.529 159.144 404.688 159.898 404.926 160.613C405.164 161.328 405.521 161.924 405.998 162.4C406.554 162.798 407.309 162.996 408.262 162.996C409.056 162.996 410.089 162.52 411.359 161.566C412.63 160.534 413.98 159.263 415.41 157.754C416.84 156.165 418.309 154.458 419.818 152.631C421.407 150.725 422.876 148.898 424.227 147.15C425.577 145.403 426.768 143.854 427.801 142.504C428.913 141.154 429.707 140.161 430.184 139.525C430.819 138.811 431.454 138.413 432.09 138.334C432.725 138.175 433.202 138.334 433.52 138.811C433.837 139.287 433.877 140.002 433.639 140.955C433.48 141.908 432.924 143.02 431.971 144.291ZM397.062 149.533C397.46 147.945 397.936 146.078 398.492 143.934C399.048 141.789 399.525 139.724 399.922 137.738C400.319 135.753 400.597 134.124 400.756 132.854C400.994 131.503 400.954 130.868 400.637 130.947C400.24 131.027 399.803 131.146 399.326 131.305C398.929 131.464 398.413 131.583 397.777 131.662C397.142 131.742 396.507 131.861 395.871 132.02C396.507 130.749 396.864 129.716 396.943 128.922C397.102 128.048 397.142 127.373 397.062 126.896C396.983 126.34 396.824 125.904 396.586 125.586C395.712 124.871 394.163 125.467 391.939 127.373C389.795 129.2 387.293 132.615 384.434 137.619C383.242 139.684 382.289 141.908 381.574 144.291C380.859 146.594 380.343 148.779 380.025 150.844C379.787 152.909 379.747 154.736 379.906 156.324C380.065 157.833 380.383 158.826 380.859 159.303C381.733 160.176 382.726 160.613 383.838 160.613C384.95 160.534 386.062 160.216 387.174 159.66C388.365 159.025 389.517 158.23 390.629 157.277C391.82 156.324 392.853 155.331 393.727 154.299C394.68 153.266 395.434 152.313 395.99 151.439C396.626 150.566 396.983 149.93 397.062 149.533ZM422.201 166.094C425.696 151.4 428.476 139.605 430.541 130.709C432.686 121.813 434.314 115.022 435.426 110.336C436.697 104.776 437.57 100.924 438.047 98.7793C438.285 97.2702 438.484 95.8008 438.643 94.3711C438.801 93.1003 438.881 91.7897 438.881 90.4395C438.881 89.0892 438.762 87.8581 438.523 86.7461C439.159 86.349 439.834 86.0312 440.549 85.793C441.343 85.5547 442.098 85.3561 442.812 85.1973C443.686 84.959 444.56 84.7604 445.434 84.6016C446.307 84.4427 447.102 84.3633 447.816 84.3633C448.452 84.3633 449.048 84.4427 449.604 84.6016C450.16 84.681 450.517 84.9193 450.676 85.3164C451.152 85.7135 451.351 86.5078 451.271 87.6992C451.271 88.8906 451.192 90.1217 451.033 91.3926C450.715 92.9017 450.358 94.5299 449.961 96.2773C449.008 99.6927 447.697 104.617 446.029 111.051C444.6 116.531 442.654 123.997 440.191 133.449C437.809 142.901 434.79 154.815 431.137 169.191C430.74 169.589 430.263 169.867 429.707 170.025C429.151 170.184 428.635 170.264 428.158 170.264C427.602 170.264 427.007 170.224 426.371 170.145C425.815 169.986 425.259 169.747 424.703 169.43C424.227 169.112 423.75 168.675 423.273 168.119C422.797 167.643 422.439 166.967 422.201 166.094ZM448.889 166.094C452.383 151.4 455.163 139.605 457.229 130.709C459.373 121.813 461.001 115.022 462.113 110.336C463.384 104.776 464.258 100.924 464.734 98.7793C464.973 97.2702 465.171 95.8008 465.33 94.3711C465.489 93.1003 465.568 91.7897 465.568 90.4395C465.568 89.0892 465.449 87.8581 465.211 86.7461C465.846 86.349 466.521 86.0312 467.236 85.793C468.031 85.5547 468.785 85.3561 469.5 85.1973C470.374 84.959 471.247 84.7604 472.121 84.6016C472.995 84.4427 473.789 84.3633 474.504 84.3633C475.139 84.3633 475.735 84.4427 476.291 84.6016C476.847 84.681 477.204 84.9193 477.363 85.3164C477.84 85.7135 478.038 86.5078 477.959 87.6992C477.959 88.8906 477.88 90.1217 477.721 91.3926C477.403 92.9017 477.046 94.5299 476.648 96.2773C475.695 99.6927 474.385 104.617 472.717 111.051C471.287 116.531 469.341 123.997 466.879 133.449C464.496 142.901 461.478 154.815 457.824 169.191C457.427 169.589 456.951 169.867 456.395 170.025C455.839 170.184 455.322 170.264 454.846 170.264C454.29 170.264 453.694 170.224 453.059 170.145C452.503 169.986 451.947 169.747 451.391 169.43C450.914 169.112 450.438 168.675 449.961 168.119C449.484 167.643 449.127 166.967 448.889 166.094ZM512.629 149.057C511.835 152.075 510.762 154.895 509.412 157.516C508.062 160.137 506.434 162.4 504.527 164.307C502.701 166.213 500.596 167.682 498.213 168.715C495.91 169.827 493.368 170.383 490.588 170.383C487.331 170.383 484.75 169.668 482.844 168.238C481.017 166.888 479.627 165.18 478.674 163.115C477.8 161.05 477.284 158.786 477.125 156.324C476.887 153.862 476.768 151.559 476.768 149.414C476.768 147.905 476.966 146.237 477.363 144.41C477.681 142.583 478.158 140.717 478.793 138.811C479.428 136.904 480.223 134.998 481.176 133.092C482.208 131.186 483.4 129.438 484.75 127.85C485.227 126.499 485.941 125.308 486.895 124.275C487.927 123.243 489.079 122.409 490.35 121.773C491.7 121.059 493.13 120.542 494.639 120.225C496.148 119.827 497.617 119.629 499.047 119.629C499.285 119.629 499.484 119.669 499.643 119.748C499.881 119.827 500.119 119.907 500.357 119.986C501.39 120.066 502.661 120.463 504.17 121.178C505.758 121.893 507.268 122.965 508.697 124.395C510.206 125.824 511.477 127.651 512.51 129.875C513.542 132.02 514.059 134.641 514.059 137.738C514.059 138.374 514.019 139.168 513.939 140.121C513.86 140.995 513.781 141.749 513.701 142.385C515.528 141.67 517.434 140.796 519.42 139.764C521.406 138.731 523.312 137.659 525.139 136.547C527.045 135.355 528.792 134.164 530.381 132.973C531.969 131.781 533.24 130.709 534.193 129.756C534.988 129.041 535.663 128.644 536.219 128.564C536.775 128.485 537.172 128.644 537.41 129.041C537.648 129.438 537.688 129.994 537.529 130.709C537.37 131.424 536.934 132.218 536.219 133.092C535.822 133.568 534.789 134.521 533.121 135.951C531.533 137.381 529.626 138.93 527.402 140.598C525.178 142.266 522.756 143.894 520.135 145.482C517.514 147.071 515.012 148.262 512.629 149.057ZM492.494 130.947C492.256 131.662 492.137 132.417 492.137 133.211C492.137 134.482 492.216 135.832 492.375 137.262C492.534 138.612 492.931 139.843 493.566 140.955C494.202 142.067 495.195 143.02 496.545 143.814C497.975 144.529 499.921 144.887 502.383 144.887C502.78 144.887 503.177 144.887 503.574 144.887C503.971 144.807 504.368 144.728 504.766 144.648C505.004 143.616 505.202 142.702 505.361 141.908C505.6 141.035 505.719 140.28 505.719 139.645C505.878 138.135 505.878 136.587 505.719 134.998C505.56 133.41 505.242 131.98 504.766 130.709C504.368 129.359 503.812 128.286 503.098 127.492C502.462 126.618 501.668 126.182 500.715 126.182C499.206 126.182 497.736 126.618 496.307 127.492C494.956 128.286 493.686 129.438 492.494 130.947ZM484.869 151.916C484.869 153.346 484.949 154.775 485.107 156.205C485.266 157.555 485.584 158.786 486.061 159.898C486.537 160.931 487.173 161.805 487.967 162.52C488.761 163.155 489.794 163.473 491.064 163.473C492.494 163.473 493.805 163.155 494.996 162.52C496.188 161.805 497.26 160.931 498.213 159.898C499.166 158.786 500 157.555 500.715 156.205C501.509 154.775 502.184 153.306 502.74 151.797C502.184 151.876 501.628 151.956 501.072 152.035C500.596 152.035 500.04 152.035 499.404 152.035C496.386 152.035 493.765 151.161 491.541 149.414C489.396 147.587 487.729 145.284 486.537 142.504C486.061 144.172 485.663 145.8 485.346 147.389C485.028 148.977 484.869 150.486 484.869 151.916Z" fill="#397F88"/>
</svg>
