<?xml version="1.0" encoding="utf-8"?>
<!-- Generator: Adobe Illustrator 16.0.0, SVG Export Plug-In . SVG Version: 6.00 Build 0)  -->
<!DOCTYPE svg PUBLIC "-//W3C//DTD SVG 1.1//EN" "http://www.w3.org/Graphics/SVG/1.1/DTD/svg11.dtd">
<svg version="1.1" id="Layer_1" xmlns="http://www.w3.org/2000/svg" xmlns:xlink="http://www.w3.org/1999/xlink" x="0px" y="0px"
	 width="36.75px" height="36px" viewBox="5.583 6 36.75 36" enable-background="new 5.583 6 36.75 36" xml:space="preserve">
<path fill="#0288D1" d="M42,37c0,2.762-2.238,5-5,5H11c-2.761,0-5-2.238-5-5V11c0-2.761,2.239-5,5-5h26c2.762,0,5,2.239,5,5V37z"/>
<path fill="#FFFFFF" d="M12,19h5v17h-5V19z M14.5,17C13,17,12,15.9,12,14.5s1-2.5,2.5-2.5s2.5,1,2.5,2.5C17,15.9,16,17,14.5,17z
	 M36,36h-5v-9.1c0-2.2-1.2-3.7-3.2-3.7c-1.5,0-2.3,1-2.7,2L25,27v9h-5V19h5v2.6c0.929-1.706,2.762-2.72,4.7-2.6
	c3.6,0,6.3,2.3,6.3,7.3V36z"/>
</svg>
