<svg width="57" height="26" fill="none" xmlns="http://www.w3.org/2000/svg"><path d="M.86 13.84c2.07.03 2.3 1.34 2.3 2.27 0 .83-.08 1.67-.17 2.53-.12.86-.2 1.76-.2 2.56 0 3.23 1.83 4.38 4.4 4.38h.86v-2.27h-.53c-1.48 0-2.07-.93-2.07-2.53 0-.64.09-1.3.2-2.01.06-.7.18-1.47.18-2.34.03-2.24-.86-3.23-2.37-3.61v-.07c1.51-.38 2.4-1.34 2.37-3.58 0-.83-.12-1.6-.18-2.3-.11-.71-.2-1.38-.2-2.02 0-1.57.53-2.5 2.07-2.5h.53V.05H7.2c-2.63 0-4.4 1.28-4.4 4.29 0 .83.08 1.7.2 2.59.09.86.18 1.73.18 2.56 0 1.02-.24 2.24-2.31 2.27v2.08zM28.23 22h3.55L30.63.43h-4.74l-2.75 8.64c-.77 2.53-1.45 5.19-1.98 7.52h-.1c-.5-2.4-1.12-4.96-1.83-7.49L16.63.43h-4.8L10.5 22h3.4l.45-8.67c.15-2.95.27-6.37.35-9.19h.06c.54 2.7 1.25 5.64 2.02 8.39l2.66 9.21h2.81l2.9-9.34c.9-2.72 1.72-5.63 2.37-8.26h.09c-.03 2.92.12 6.28.24 9.06l.38 8.8zm6.37-1.02c1.1.7 3.29 1.34 5.39 1.34 5.15 0 7.58-3 7.58-6.46 0-3.1-1.7-5-5.16-6.4-2.66-1.12-3.81-1.9-3.81-3.56 0-1.24 1-2.59 3.31-2.59 1.87 0 3.26.61 3.97 1.03l.89-3.17a9.88 9.88 0 0 0-4.8-1.09c-4.32 0-7.04 2.69-7.04 6.2 0 3.11 2.1 5 5.38 6.28 2.55 1 3.56 1.95 3.56 3.58 0 1.76-1.3 2.95-3.65 2.95a9.5 9.5 0 0 1-4.82-1.38l-.8 3.27zm22.16-9.22c-2.04-.03-2.31-1.25-2.31-2.27 0-.83.12-1.7.2-2.56.1-.9.21-1.76.21-2.6 0-3-1.77-4.28-4.4-4.28h-.87v2.3h.54c1.5.03 2.04.93 2.04 2.5 0 .64-.09 1.31-.18 2.01-.09.7-.18 1.48-.18 2.3-.03 2.25.86 3.2 2.34 3.6v.06c-1.48.38-2.37 1.37-2.34 3.61 0 .87.1 1.63.18 2.34.1.7.18 1.37.18 2.01 0 1.6-.56 2.5-2.04 2.53h-.54v2.27h.86c2.58 0 4.41-1.15 4.41-4.38 0-.8-.12-1.7-.2-2.56-.1-.86-.21-1.7-.21-2.53 0-.93.27-2.24 2.3-2.27v-2.08z" fill="#D27029"/></svg>