<svg xmlns="http://www.w3.org/2000/svg" width="48" height="48"><path d="M5.5 40.5h37c2 0 3.5-1.6 3.5-3.5V11c0-2-1.6-3.5-3.5-3.5h-37C3.5 7.5 2 9.1 2 11v26c0 2 1.6 3.5 3.5 3.5z" fill="#e0e0e0"/><path d="M26 40.5h16.5c2 0 3.5-1.6 3.5-3.5V11c0-2-1.6-3.5-3.5-3.5h-37C3.5 7.5 2 9.1 2 11z" fill="#d9d9d9"/><path d="M6.7 40.5h35.8c2 0 3.5-1.6 3.5-3.5V11.5z" fill="#eee"/><path d="M25.7 40.5h16.8c2 0 3.5-1.6 3.5-3.5V11.5L18.8 31.6z" fill="#e0e0e0"/><path d="M42.5 9.5h-37C3.5 9.5 2 9.1 2 11v26c0 2 1.6 3.5 3.5 3.5H7V12h34v28.5h1.5c2 0 3.5-1.6 3.5-3.5V11c0-2-1.6-1.5-3.5-1.5z" fill="#ca3737"/><path d="M42.5 7.5h-37C3.5 7.5 2 9 2 11c0 1.2 1.5 2.3 1.5 2.3L24 27.8l20.5-14.5s1.5-1 1.5-2.3c0-2-1.6-3.5-3.5-3.5z" fill="#f5f5f5"/><path d="M43.2 7.6L24 21 4.8 7.6A3.5 3.5 0 0 0 2 11c0 1.2 1.5 2.3 1.5 2.3L24 27.8l20.5-14.5s1.5-1 1.5-2.3c0-1.7-1.2-3-2.8-3.4z" fill="#e84f4b"/></svg>