<?xml version="1.0" encoding="utf-8"?>
<!-- Generator: Adobe Illustrator 16.0.0, SVG Export Plug-In . SVG Version: 6.00 Build 0)  -->
<!DOCTYPE svg PUBLIC "-//W3C//DTD SVG 1.1//EN" "http://www.w3.org/Graphics/SVG/1.1/DTD/svg11.dtd">
<svg version="1.1" xmlns="http://www.w3.org/2000/svg" xmlns:xlink="http://www.w3.org/1999/xlink" x="0px" y="0px"
	 width="57.401px" height="59.833px" viewBox="0 0 57.401 59.833" enable-background="new 0 0 57.401 59.833" xml:space="preserve">
<g id="Layer_2">
	<ellipse fill="#FFFFFF" stroke="#FFFFFF" stroke-width="0.4899" cx="29.2" cy="29.086" rx="28.2" ry="27.881"/>
</g>
<g id="Layer_1">
	<path fill="none" stroke="#FFAE2D" stroke-width="1.3594" d="M47.728,8.514C36.195-2.105,18.248-1.355,7.64,10.19"/>
	<path fill="none" stroke="#FFAE2D" stroke-width="1.3594" d="M49.634,48.391C39.537,59.379,22.003,59.679,10.472,49.06
		s-12.696-28.135-2.6-39.124"/>
	<path fill="#FFAE00" stroke="#FFFFFF" stroke-width="0.4899" d="M13.319,21.22c0-0.879,0.713-1.592,1.592-1.592h12.616
		c0.88,0,1.593,0.712,1.593,1.592v6.667c0,0.879-0.713,1.592-1.593,1.592H14.91c-0.879,0-1.592-0.713-1.592-1.592L13.319,21.22
		L13.319,21.22z"/>
	<path fill="#FFAE00" stroke="#FFFFFF" stroke-width="0.4899" d="M28.854,21.22c0-0.879,0.712-1.592,1.592-1.592h12.616
		c0.88,0,1.593,0.712,1.593,1.592v6.667c0,0.879-0.713,1.592-1.593,1.592H30.445c-0.88,0-1.592-0.713-1.592-1.592L28.854,21.22
		L28.854,21.22z"/>
	<path fill="#FFAE00" d="M41.292,41.362c0.588,0,1.065-0.504,1.065-1.125s-0.478-1.125-1.065-1.125
		c-0.589,0-1.066,0.504-1.066,1.125S40.703,41.362,41.292,41.362z"/>
	<path fill="#FFAE00" d="M17.31,41.362c0.589,0,1.066-0.504,1.066-1.125s-0.479-1.125-1.066-1.125s-1.066,0.504-1.066,1.125
		C16.243,40.858,16.72,41.362,17.31,41.362z"/>
	<path fill="#FFAE00" stroke="#FFFFFF" stroke-width="0.4899" d="M13.527,28.293h31.525v5.092H13.527V28.293z"/>
	<path fill="#FFAE00" d="M47.921,30.198c0.723-0.188,1.354-0.73,1.655-1.518c0.498-1.299-0.09-2.773-1.313-3.294
		c-1.225-0.521-2.621,0.11-3.121,1.409c-0.105,0.277-0.162,0.562-0.174,0.844c-0.012,0.04-0.017,0.064-0.017,0.064l-2.512,5.697
		H16.001c-1.147-2.254-2.875-5.621-3.369-6.484c-0.045-0.08-0.096-0.152-0.15-0.221c-0.533-1.229-1.887-1.812-3.078-1.306
		c-1.226,0.522-1.814,1.997-1.314,3.296c0.32,0.838,1.016,1.396,1.797,1.551l2.252,5.858c-0.078,0.179-0.119,0.368-0.119,0.567
		c0,0.951,0.969,1.737,2.199,1.812l0.127,0.001l0.064-0.001h29.626l0.178,0.005c1.322,0,2.394-0.812,2.394-1.812
		c0-0.279-0.084-0.545-0.233-0.782C46.849,34.2,47.595,31.532,47.921,30.198z"/>
	<path fill="#FFFFFF" d="M49.577,28.681l0.229,0.088l0,0L49.577,28.681z M47.921,30.198l-0.062-0.236l-0.143,0.037l-0.033,0.142
		L47.921,30.198z M45.142,26.797l-0.229-0.088l0,0L45.142,26.797z M44.968,27.64l0.235,0.069l0.009-0.029v-0.03L44.968,27.64z
		 M44.952,27.706l0.226,0.099l0.014-0.029l0.004-0.032L44.952,27.706z M42.441,33.403v0.243h0.16l0.064-0.146L42.441,33.403z
		 M16.001,33.403l-0.218,0.11l0.068,0.133h0.149V33.403z M12.633,26.917l-0.213,0.121l0.001,0.002L12.633,26.917z M12.482,26.696
		l-0.225,0.098l0.013,0.031l0.02,0.024L12.482,26.696z M9.404,25.391l-0.096-0.227l0,0L9.404,25.391z M8.091,28.686l0.229-0.088l0,0
		L8.091,28.686z M9.888,30.237l0.229-0.089l-0.048-0.127l-0.133-0.024L9.888,30.237z M12.14,36.096l0.225,0.098l0.04-0.092
		l-0.036-0.094L12.14,36.096z M14.22,38.475l-0.015,0.245h0.013L14.22,38.475z M14.347,38.476l-0.002,0.245l0.006-0.001
		L14.347,38.476z M14.412,38.475V38.23h-0.004L14.412,38.475z M44.038,38.475l0.009-0.245h-0.009V38.475z M44.216,38.48
		l-0.006,0.245h0.006V38.48z M46.375,35.885l-0.236-0.066l-0.029,0.105l0.059,0.092L46.375,35.885z M49.349,28.593
		c-0.274,0.714-0.844,1.198-1.489,1.368l0.124,0.475c0.801-0.21,1.492-0.809,1.822-1.667L49.349,28.593z M48.167,25.612
		c1.094,0.465,1.637,1.797,1.182,2.981l0.457,0.175c0.543-1.413-0.092-3.031-1.447-3.607L48.167,25.612z M45.37,26.885
		c0.455-1.182,1.712-1.735,2.798-1.273l0.19-0.451c-1.36-0.578-2.897,0.129-3.445,1.549L45.37,26.885z M45.212,27.65
		c0.012-0.255,0.062-0.515,0.158-0.766l-0.458-0.175c-0.114,0.301-0.177,0.613-0.188,0.92L45.212,27.65z M44.952,27.706
		c0.242,0.037,0.242,0.037,0.242,0.037l0,0l0,0l0,0l0,0l0,0l0,0l0,0c0,0,0-0.002,0.001-0.006c0.001-0.006,0.004-0.017,0.009-0.029
		l-0.471-0.139c-0.009,0.026-0.015,0.049-0.017,0.065c-0.002,0.008-0.004,0.015-0.006,0.021c0,0.004,0,0.006,0,0.008v0.002
		c0,0,0,0,0,0.002c0,0,0,0-0.002,0l0,0l0,0l0,0C44.71,27.668,44.71,27.668,44.952,27.706z M42.666,33.5l2.512-5.696l-0.448-0.198
		l-2.513,5.697L42.666,33.5z M16.001,33.646h26.439v-0.489H16.001V33.646z M12.42,27.038c0.49,0.857,2.213,4.217,3.363,6.476
		l0.438-0.224c-1.146-2.25-2.877-5.625-3.375-6.496L12.42,27.038z M12.291,26.849c0.048,0.06,0.091,0.122,0.128,0.188l0.427-0.24
		c-0.053-0.094-0.112-0.178-0.173-0.254L12.291,26.849z M9.5,25.618c1.058-0.449,2.274,0.062,2.758,1.176l0.449-0.194
		c-0.583-1.341-2.074-1.995-3.398-1.433L9.5,25.618z M8.32,28.599c-0.456-1.187,0.085-2.517,1.18-2.981l-0.191-0.451
		c-1.355,0.576-1.989,2.193-1.445,3.607L8.32,28.599z M9.935,29.997C9.238,29.86,8.611,29.36,8.32,28.599l-0.458,0.175
		c0.35,0.916,1.114,1.534,1.979,1.703L9.935,29.997z M12.369,36.008l-2.252-5.859L9.66,30.325l2.252,5.859L12.369,36.008z
		 M12.266,36.663c0-0.164,0.034-0.32,0.099-0.469l-0.449-0.195c-0.091,0.209-0.139,0.432-0.139,0.664H12.266z M14.235,38.23
		c-1.162-0.069-1.969-0.799-1.969-1.567h-0.49c0,1.137,1.131,1.979,2.429,2.058L14.235,38.23z M14.349,38.231l-0.127-0.001
		l-0.004,0.49l0.127,0.001L14.349,38.231z M14.408,38.23l-0.064,0.001l0.007,0.489h0.064L14.408,38.23z M44.038,38.23H14.412v0.49
		h29.626V38.23z M44.224,38.235l-0.178-0.005l-0.015,0.49l0.179,0.004L44.224,38.235z M46.364,36.668
		c0,0.406-0.217,0.793-0.604,1.086c-0.387,0.293-0.932,0.48-1.545,0.48v0.49c0.711,0,1.361-0.219,1.842-0.581
		c0.479-0.362,0.798-0.883,0.798-1.478h-0.49V36.668z M46.167,36.016c0.129,0.201,0.196,0.422,0.196,0.652h0.49
		c0-0.332-0.101-0.643-0.272-0.914L46.167,36.016z M47.683,30.14c-0.324,1.329-1.068,3.991-1.545,5.679l0.473,0.133
		c0.475-1.684,1.223-4.354,1.549-5.695L47.683,30.14z"/>
</g>
</svg>
